<svg width="41" height="39" viewBox="0 0 41 39" fill="none" xmlns="http://www.w3.org/2000/svg">
<ellipse cx="20.5" cy="19.5" rx="20.5" ry="19.5" fill="#F4F4F4"/>
<g clip-path="url(#clip0_649_5535)">
<path d="M29.9998 12.2167C29.9998 10.9577 28.9502 9.94382 27.6783 10.0024C26.5522 10.0543 25.6342 10.9616 25.5701 12.0871C25.5167 13.0259 26.048 13.8467 26.8331 14.2197V17.2833C26.8331 17.9829 26.266 18.55 25.5665 18.55H22.5029C22.2839 18.0891 21.9107 17.7159 21.4498 17.4969V14.2197C22.235 13.8467 22.7662 13.0259 22.7128 12.0871C22.6488 10.9616 21.7308 10.0543 20.6046 10.0024C19.3327 9.94386 18.2832 10.9577 18.2832 12.2167C18.2832 13.1009 18.801 13.8639 19.5498 14.2197V17.497C19.0889 17.7159 18.7157 18.0891 18.4968 18.55H14.1664V14.2197C14.9516 13.8467 15.4828 13.0259 15.4294 12.0871C15.3654 10.9616 14.4474 10.0543 13.3212 10.0024C12.0493 9.94386 10.9998 10.9577 10.9998 12.2167C10.9998 13.1009 11.5176 13.8639 12.2664 14.2197V24.7803C11.4813 25.1533 10.95 25.9741 11.0034 26.9128C11.0675 28.0384 11.9855 28.9457 13.1116 28.9976C14.3835 29.0561 15.4331 28.0423 15.4331 26.7833C15.4331 25.8991 14.9153 25.136 14.1664 24.7803V20.45H18.4967C18.7157 20.9109 19.0889 21.2841 19.5497 21.5031V24.7803C18.7646 25.1534 18.2334 25.9741 18.2868 26.9129C18.3508 28.0384 19.2688 28.9457 20.3949 28.9976C21.6668 29.0562 22.7164 28.0423 22.7164 26.7833C22.7164 25.8991 22.1986 25.1361 21.4497 24.7803V21.5031C21.9106 21.2841 22.2838 20.9109 22.5028 20.45H25.5664C27.3153 20.45 28.733 19.0322 28.733 17.2834V14.2197C29.4819 13.8639 29.9998 13.1009 29.9998 12.2167Z" fill="#777777"/>
</g>
<defs>
<clipPath id="clip0_649_5535">
<rect width="19" height="19" fill="white" transform="translate(11 10)"/>
</clipPath>
</defs>
</svg>
