<?xml version="1.0" encoding="utf-8"?>
<!-- Generator: Adobe Illustrator 26.3.1, SVG Export Plug-In . SVG Version: 6.00 Build 0)  -->
<svg version="1.1" id="Layer_1" xmlns="http://www.w3.org/2000/svg" xmlns:xlink="http://www.w3.org/1999/xlink" x="0px" y="0px"
	 viewBox="0 0 500 401.12" style="enable-background:new 0 0 500 401.12;" xml:space="preserve">
<style type="text/css">
	.st0{fill:#F9F8F8;}
	.st1{fill:#F2F2F2;}
	.st2{fill:#ECECEC;}
	.st3{fill:#E4E4E4;}
	.st4{fill:#EAEAEA;}
	.st5{fill:url(#SVGID_1_);}
	.st6{fill:#D1D1D1;}
	.st7{fill:#E0E0E0;}
	.st8{fill:#FFFFFF;}
	.st9{fill:#FF542B;}
	.st10{fill:#FA7315;}
	.st11{fill:#242850;}
	.st12{font-family:'ArialMT';}
	.st13{font-size:21.3987px;}
</style>
<g>
	<g>
		<path class="st0" d="M496.12,253.77h-52.57c3.84-15.67,5.88-32.06,5.88-48.91c0-33.51-8.05-65.13-22.31-93.06h37.28
			c2.14,0,3.88-1.74,3.88-3.88v0c0-2.14-1.74-3.88-3.88-3.88h-41.46C387.75,41.92,321.05,0,244.57,0
			c-50.87,0-97.41,18.55-133.23,49.25H48.25c-2.14,0-3.88,1.74-3.88,3.88v0c0,2.14,1.74,3.88,3.88,3.88h54.52
			c-4.35,4.18-8.52,8.54-12.49,13.09H3.88C1.74,70.1,0,71.84,0,73.98v0c0,2.14,1.74,3.88,3.88,3.88h79.93
			c-27.62,34.91-44.11,79.03-44.11,127c0,26.84,5.17,52.48,14.55,75.98H44.03c-2.14,0-3.88,1.74-3.88,3.88l0,0
			c0,2.14,1.74,3.88,3.88,3.88h13.52c1.41,3.15,2.9,6.25,4.47,9.32H16.08c-2.14,0-3.88,1.74-3.88,3.88l0,0
			c0,2.14,1.74,3.88,3.88,3.88H66.2c4.79,8.45,10.16,16.53,16.06,24.18h324.62c11.03-14.3,20.21-30.09,27.18-47.03h38.1
			c2.14,0,3.88-1.74,3.88-3.88l0,0c0-2.14-1.74-3.88-3.88-3.88h-35.09c1.62-4.44,3.09-8.95,4.41-13.53h54.64
			c2.14,0,3.88-1.74,3.88-3.88l0,0C500,255.51,498.26,253.77,496.12,253.77z"/>
		<g>
			<g>
				<path class="st1" d="M330.66,329.85h-24.82l0,0c0-1.79,1.45-3.24,3.24-3.24h18.33C329.21,326.6,330.66,328.05,330.66,329.85
					L330.66,329.85z"/>
				<polygon class="st1" points="324.79,326.6 311.73,326.6 315.97,205.63 318.82,207.53 				"/>
				<g>
					<path class="st1" d="M328.82,329.85H304l0,0c0-1.79,1.45-3.24,3.24-3.24h18.33C327.37,326.6,328.82,328.05,328.82,329.85
						L328.82,329.85z"/>
					<g>
						<g>
							<path class="st1" d="M316.41,206.7l62.45,36.05l-0.68-3.55c-0.13-0.7-0.52-1.33-1.08-1.76l-40.8-31.58
								c-0.75-0.58-1.73-0.76-2.63-0.49l-8.18,2.45c-0.77,0.23-1.61,0.13-2.3-0.27l-5.44-3.14L316.41,206.7z"/>
							<path class="st1" d="M315.08,204.4l-62.45,36.05l3.41,1.18c0.68,0.23,1.42,0.21,2.08-0.06l47.74-19.54
								c0.88-0.36,1.53-1.12,1.75-2.04l1.97-8.3c0.19-0.79,0.69-1.46,1.39-1.87l5.43-3.14L315.08,204.4z"/>
							<path class="st1" d="M317.73,204.4V132.3l-2.73,2.36c-0.54,0.47-0.89,1.12-0.99,1.83l-6.95,51.11
								c-0.13,0.94,0.21,1.88,0.89,2.53l6.2,5.86c0.59,0.55,0.92,1.33,0.92,2.14v6.28H317.73z"/>
							<polygon class="st1" points="322.4,326.6 310.42,326.6 314.66,205.63 318.16,205.63 							"/>
							
								<ellipse transform="matrix(0.2298 -0.9732 0.9732 0.2298 43.5848 466.3309)" class="st1" cx="316.41" cy="205.63" rx="3.07" ry="3.07"/>
						</g>
					</g>
				</g>
				<circle class="st1" cx="316.2" cy="205.45" r="2.8"/>
				<polygon class="st1" points="253.75,240.84 313.4,205.45 313.35,205.41 252.64,240.46 				"/>
				<rect x="310.44" y="325.82" class="st1" width="11.96" height="0.79"/>
				<polygon class="st1" points="316.85,133.07 317.67,202.92 317.73,202.89 317.73,132.3 				"/>
				<polygon class="st1" points="378.63,241.6 318.16,207.63 318.15,207.7 378.86,242.75 				"/>
			</g>
			<g>
				<path class="st2" d="M412.2,329.85h-39.73l0,0c0-2.87,2.33-5.19,5.19-5.19h29.34C409.87,324.65,412.2,326.98,412.2,329.85
					L412.2,329.85z"/>
				<polygon class="st2" points="402.79,324.65 381.88,324.65 388.67,130.98 393.24,134.01 				"/>
				<g>
					<path class="st1" d="M409.24,329.85h-39.73l0,0c0-2.87,2.33-5.19,5.19-5.19h29.34C406.92,324.65,409.24,326.98,409.24,329.85
						L409.24,329.85z"/>
					<g>
						<g>
							<path class="st1" d="M389.38,132.69l99.98,57.72l-1.22-6.33c-0.13-0.7-0.52-1.33-1.08-1.77l-66.55-51.52
								c-0.75-0.58-1.73-0.76-2.63-0.49l-14.69,4.39c-0.77,0.23-1.61,0.13-2.31-0.27l-9.36-5.41L389.38,132.69z"/>
							<path class="st1" d="M387.26,129.02l-99.98,57.72l6.09,2.11c0.68,0.23,1.41,0.21,2.07-0.06l79.29-32.45l4.18-17.62
								l10.46-6.04L387.26,129.02z"/>
							<path class="st1" d="M391.49,129.02V13.58l-4.87,4.22c-0.54,0.47-0.89,1.12-0.99,1.83l-11.34,83.39
								c-0.13,0.94,0.21,1.88,0.89,2.53l11.15,10.53c0.59,0.56,0.92,1.33,0.92,2.14v10.81H391.49z"/>
							<polygon class="st1" points="398.97,324.65 379.78,324.65 386.58,130.98 392.18,130.98 							"/>
							
								<ellipse transform="matrix(0.3827 -0.9239 0.9239 0.3827 119.3605 440.593)" class="st2" cx="389.38" cy="130.98" rx="4.91" ry="4.91"/>
						</g>
					</g>
				</g>
				
					<ellipse transform="matrix(0.3827 -0.9239 0.9239 0.3827 119.421 440.1053)" class="st1" cx="389.04" cy="130.69" rx="4.48" ry="4.48"/>
				<polygon class="st2" points="289.05,187.35 384.56,130.69 384.48,130.62 287.28,186.74 				"/>
				<rect x="379.83" y="323.39" class="st2" width="19.15" height="1.26"/>
				<polygon class="st2" points="390.08,14.81 391.39,126.64 391.49,126.59 391.49,13.58 				"/>
				<polygon class="st2" points="489,188.57 392.17,134.19 392.16,134.3 489.35,190.41 				"/>
			</g>
		</g>
		<g>
			<g>
				<path class="st1" d="M101.6,236.08H86.35c-8.6,0-15.64-7.04-15.64-15.64v-68.79c0-8.6,7.04-15.64,15.64-15.64h15.25
					c8.6,0,15.64,7.04,15.64,15.64v68.79C117.23,229.04,110.2,236.08,101.6,236.08z"/>
				<path class="st3" d="M95.24,329.96h-2.54V173.22c0-0.7,0.57-1.27,1.27-1.27l0,0c0.7,0,1.27,0.57,1.27,1.27V329.96z"/>
				<path class="st3" d="M95.24,194.46l-7.06-12.22c-0.35-0.61-1.13-0.81-1.73-0.46c-0.61,0.35-0.81,1.13-0.46,1.73l7.06,12.22
					L95.24,194.46z"/>
				<path class="st3" d="M94.9,209.08l7.06-12.22c0.35-0.61,0.14-1.38-0.46-1.73c-0.61-0.35-1.38-0.14-1.73,0.46l-7.06,12.22
					L94.9,209.08z"/>
			</g>
			<g>
				<path class="st1" d="M163.05,210.6h-19.36c-10.92,0-19.86-8.94-19.86-19.86v-87.35c0-10.92,8.94-19.86,19.86-19.86h19.36
					c10.92,0,19.86,8.94,19.86,19.86v87.35C182.91,201.66,173.97,210.6,163.05,210.6z"/>
				<path class="st3" d="M154.98,329.82h-3.22V130.78c0-0.89,0.72-1.61,1.61-1.61l0,0c0.89,0,1.61,0.72,1.61,1.61V329.82z"/>
				<path class="st3" d="M154.98,157.75l-8.96-15.52c-0.44-0.77-1.43-1.03-2.2-0.59c-0.77,0.44-1.03,1.43-0.59,2.2l8.96,15.52
					L154.98,157.75z"/>
				<path class="st3" d="M154.55,176.32l8.96-15.52c0.44-0.77,0.18-1.76-0.59-2.2c-0.77-0.44-1.76-0.18-2.2,0.59l-8.96,15.52
					L154.55,176.32z"/>
			</g>
		</g>
		<g>
			<g>
				<g>
					<path class="st3" d="M108.32,321.17c1.36-1.27,1.98-2.73,1.44-3.75c-0.66-1.27-2.88-1.46-5.24-0.57
						c0.12-0.31,0.23-0.63,0.34-0.95c1.26-4.02,0.54-7.83-1.61-8.5c-2.09-0.66-4.77,1.91-6.07,5.76c-1.08-4.42-3.84-7.53-6.21-6.97
						c-2.23,0.52-3.33,4.12-2.61,8.24c-3.27-1.44-6.43-1.33-7.43,0.41c-1.04,1.8,0.58,4.73,3.67,6.86
						c-1.46,0.49-2.47,1.39-2.61,2.51c-0.17,1.38,1.02,2.75,2.9,3.59c-0.1,0.27-0.13,0.54-0.07,0.8c0.2,0.83,1.25,1.35,2.63,1.4v0
						h0.21c0.01,0,0.01,0,0.02,0h17.45v-0.02c0.34-0.04,0.59-0.19,0.68-0.42c0.06-0.15,0.03-0.33-0.06-0.5
						c0.92-0.09,1.61-0.45,1.84-1.06c0.18-0.47,0.04-1.02-0.32-1.55c2.39-0.16,4.22-1.2,4.28-2.55
						C111.59,322.73,110.25,321.66,108.32,321.17z"/>
				</g>
				<g>
					<path class="st1" d="M145.05,313.75c2.49-2.34,3.63-5.02,2.65-6.9c-1.22-2.33-5.29-2.69-9.63-1.05
						c0.22-0.57,0.43-1.15,0.62-1.75c2.32-7.4,0.99-14.39-2.95-15.63c-3.85-1.21-8.77,3.51-11.16,10.6
						c-1.98-8.12-7.07-13.85-11.42-12.82c-4.1,0.97-6.12,7.57-4.8,15.15c-6.01-2.66-11.82-2.44-13.67,0.76
						c-1.91,3.32,1.07,8.7,6.75,12.62c-2.69,0.9-4.54,2.55-4.8,4.62c-0.31,2.54,1.87,5.05,5.33,6.6c-0.19,0.49-0.24,0.99-0.13,1.47
						c0.36,1.53,2.3,2.48,4.84,2.58v0.01h0.38c0.01,0,0.02,0,0.03,0h32.09v-0.03c0.63-0.08,1.09-0.35,1.25-0.77
						c0.11-0.28,0.06-0.6-0.1-0.92c1.69-0.16,2.96-0.83,3.38-1.95c0.33-0.87,0.08-1.87-0.59-2.86c4.39-0.29,7.76-2.22,7.87-4.69
						C151.06,316.62,148.6,314.65,145.05,313.75z"/>
				</g>
			</g>
			<g>
				<path class="st4" d="M363.5,315.42c-2.22-2.09-3.23-4.47-2.36-6.14c1.08-2.08,4.71-2.39,8.58-0.93c-0.2-0.5-0.38-1.02-0.55-1.56
					c-2.06-6.59-0.88-12.82,2.63-13.92c3.43-1.07,7.81,3.12,9.94,9.44c1.76-7.23,6.29-12.33,10.17-11.42
					c3.66,0.86,5.45,6.74,4.27,13.49c5.36-2.36,10.52-2.18,12.17,0.68c1.7,2.95-0.95,7.74-6.01,11.24c2.4,0.8,4.05,2.27,4.27,4.12
					c0.28,2.26-1.66,4.5-4.74,5.88c0.17,0.44,0.22,0.88,0.12,1.31c-0.32,1.37-2.05,2.21-4.31,2.3v0.01h-0.34c-0.01,0-0.02,0-0.03,0
					h-28.57v-0.02c-0.56-0.07-0.97-0.31-1.11-0.69c-0.09-0.25-0.05-0.54,0.09-0.82c-1.5-0.15-2.64-0.74-3.01-1.73
					c-0.29-0.77-0.07-1.67,0.53-2.54c-3.91-0.26-6.91-1.97-7-4.18C358.15,317.98,360.34,316.22,363.5,315.42z"/>
			</g>
			<g>
				<path class="st3" d="M396.52,324.07c-0.9-0.84-1.31-1.81-0.95-2.48c0.44-0.84,1.9-0.97,3.47-0.38c-0.08-0.2-0.15-0.41-0.22-0.63
					c-0.83-2.66-0.36-5.18,1.06-5.62c1.38-0.43,3.15,1.26,4.02,3.81c0.71-2.92,2.54-4.98,4.11-4.61c1.48,0.35,2.2,2.73,1.73,5.45
					c2.16-0.96,4.25-0.88,4.92,0.27c0.69,1.19-0.38,3.13-2.43,4.54c0.97,0.32,1.64,0.92,1.73,1.66c0.11,0.91-0.67,1.82-1.92,2.37
					c0.07,0.18,0.09,0.36,0.05,0.53c-0.13,0.55-0.83,0.89-1.74,0.93v0h-0.14c0,0-0.01,0-0.01,0h-11.54v-0.01
					c-0.23-0.03-0.39-0.12-0.45-0.28c-0.04-0.1-0.02-0.22,0.04-0.33c-0.61-0.06-1.06-0.3-1.21-0.7c-0.12-0.31-0.03-0.67,0.21-1.03
					c-1.58-0.11-2.79-0.8-2.83-1.69C394.36,325.1,395.25,324.39,396.52,324.07z"/>
			</g>
		</g>
		<g>
			<path class="st1" d="M301.45,138.31c-0.19,0-0.37,0.03-0.55,0.08c0.01-0.09,0.01-0.18,0.01-0.28c0-2.13-1.72-3.85-3.85-3.85
				c-1.76,0-3.25,1.19-3.71,2.8c-0.22-0.06-0.44-0.09-0.68-0.09c-1.38,0-2.49,1.12-2.49,2.49c0,1.38,1.12,2.49,2.49,2.49
				c0.04,0,0.09,0,0.13,0v0h8.64c1.01,0,1.83-0.82,1.83-1.83S302.46,138.31,301.45,138.31z"/>
			<path class="st1" d="M234.25,96.28c-1.04,0-2.01,0.29-2.85,0.79c-0.86-3.72-4.2-6.5-8.18-6.5c-0.35,0-0.7,0.02-1.04,0.07
				c-1.86-4.14-6.01-7.02-10.84-7.02c-6.56,0-11.88,5.32-11.88,11.88c0,0.07,0,0.14,0,0.21c-0.79-0.38-1.68-0.59-2.62-0.59
				c-3.38,0-6.13,2.74-6.13,6.13c0,3.38,2.74,6.13,6.13,6.13h37.4c3.06,0,5.54-2.48,5.54-5.54
				C239.8,98.76,237.31,96.28,234.25,96.28z"/>
			<path class="st1" d="M177.25,228.29c0.68,0,1.32,0.19,1.87,0.52c0.57-2.45,2.76-4.28,5.38-4.28c0.23,0,0.46,0.02,0.68,0.04
				c1.22-2.72,3.96-4.62,7.13-4.62c4.32,0,7.81,3.5,7.81,7.81c0,0.05,0,0.09,0,0.14c0.52-0.25,1.11-0.39,1.72-0.39
				c2.23,0,4.03,1.8,4.03,4.03c0,2.23-1.8,4.03-4.03,4.03h-24.6c-2.01,0-3.65-1.63-3.65-3.65
				C173.6,229.92,175.23,228.29,177.25,228.29z"/>
		</g>
		<g>
			<g>
				<g>
					<g>
						<g>
							<g>
								<g>
									<path class="st3" d="M421.97,308.07l-0.06,0.22c-0.01,0.02-0.16,0.6-0.53,1.3c-0.35,0.66-0.96,1.56-1.91,2.12
										c-0.95,0.56-2.03,0.66-2.78,0.65c-0.8-0.01-1.37-0.16-1.4-0.16l-0.22-0.06l0.06-0.22c0.01-0.02,0.16-0.6,0.53-1.3
										c0.35-0.66,0.96-1.56,1.91-2.12c0.95-0.56,2.03-0.66,2.78-0.65c0.8,0.01,1.37,0.16,1.4,0.16L421.97,308.07z M415.64,311.8
										c0.61,0.11,2.27,0.3,3.59-0.48c1.33-0.78,1.96-2.33,2.16-2.91c-0.61-0.11-2.27-0.3-3.59,0.48
										C416.48,309.68,415.84,311.22,415.64,311.8z"/>
								</g>
							</g>
						</g>
					</g>
				</g>
				<g>
					<g>
						<path class="st1" d="M418.8,313.38c-2.11,0.8-4.46-0.26-4.46-0.26s1.07-2.34,3.18-3.14c2.11-0.8,4.46,0.26,4.46,0.26
							S420.91,312.58,418.8,313.38z"/>
					</g>
				</g>
			</g>
			<g>
				<g>
					<g>
						<g>
							<g>
								<g>
									<path class="st3" d="M414.28,282.71l0,0.28c0,0.03-0.01,0.77-0.25,1.73c-0.22,0.9-0.69,2.17-1.66,3.13
										c-0.98,0.96-2.25,1.42-3.15,1.62c-0.97,0.22-1.7,0.23-1.73,0.23l-0.28,0l0-0.28c0-0.03,0.01-0.77,0.25-1.73
										c0.22-0.9,0.69-2.17,1.66-3.13s2.25-1.42,3.15-1.62c0.97-0.22,1.7-0.23,1.73-0.23L414.28,282.71z M407.78,289.13
										c0.76-0.05,2.83-0.33,4.19-1.67c1.37-1.35,1.66-3.41,1.73-4.17c-0.76,0.05-2.83,0.33-4.19,1.67
										C408.14,286.31,407.85,288.37,407.78,289.13z"/>
								</g>
							</g>
						</g>
					</g>
				</g>
				<g>
					<g>
						<path class="st1" d="M412.07,290.07c-2.31,1.6-5.46,1.04-5.46,1.04s0.58-3.15,2.89-4.75c2.31-1.6,5.46-1.04,5.46-1.04
							S414.38,288.47,412.07,290.07z"/>
					</g>
				</g>
			</g>
			<g>
				<g>
					<g>
						<g>
							<g>
								<g>
									<path class="st3" d="M121.51,275.27l0.18,0.15c0.02,0.02,0.48,0.42,0.97,1.08c0.45,0.62,1.02,1.6,1.11,2.74
										c0.09,1.14-0.3,2.2-0.65,2.88c-0.37,0.74-0.77,1.21-0.78,1.23l-0.15,0.18l-0.18-0.15c-0.02-0.02-0.48-0.42-0.97-1.08
										c-0.45-0.62-1.02-1.6-1.11-2.74c-0.09-1.14,0.3-2.2,0.65-2.88c0.37-0.74,0.77-1.21,0.78-1.23L121.51,275.27z
										 M122.13,282.85c0.37-0.52,1.3-1.98,1.17-3.57c-0.13-1.6-1.28-2.88-1.74-3.33c-0.37,0.52-1.3,1.98-1.17,3.57
										C120.52,281.11,121.67,282.4,122.13,282.85z"/>
								</g>
							</g>
						</g>
					</g>
				</g>
				<g>
					<g>
						<path class="st1" d="M125.02,280.62c-0.21,2.33-2.26,4.05-2.26,4.05s-1.7-2.06-1.49-4.39c0.21-2.33,2.26-4.05,2.26-4.05
							S125.24,278.29,125.02,280.62z"/>
					</g>
				</g>
			</g>
			<g>
				<g>
					<g>
						<g>
							<g>
								<g>
									<path class="st3" d="M76.62,302.17l0.2-0.01c0.02,0,0.54-0.03,1.22,0.08c0.64,0.11,1.55,0.37,2.28,1
										c0.73,0.63,1.11,1.5,1.3,2.12c0.21,0.66,0.25,1.18,0.25,1.2l0.01,0.2l-0.2,0.01c-0.02,0-0.54,0.03-1.22-0.08
										c-0.64-0.11-1.55-0.37-2.28-1c-0.73-0.63-1.11-1.5-1.3-2.12c-0.21-0.66-0.25-1.18-0.25-1.2L76.62,302.17z M81.45,306.37
										c-0.08-0.53-0.38-1.96-1.39-2.84c-1.02-0.88-2.47-0.98-3-0.99c0.08,0.53,0.38,1.96,1.39,2.84
										C79.46,306.27,80.91,306.36,81.45,306.37z"/>
								</g>
							</g>
						</g>
					</g>
				</g>
				<g>
					<g>
						<path class="st1" d="M81.88,303.32c1.24,1.53,1.02,3.76,1.02,3.76s-2.23-0.24-3.47-1.77c-1.24-1.53-1.02-3.76-1.02-3.76
							S80.64,301.8,81.88,303.32z"/>
					</g>
				</g>
			</g>
			<g>
				<g>
					<g>
						<g>
							<g>
								<g>
									<path class="st3" d="M354.76,296.11l0.22-0.01c0.02,0,0.6-0.01,1.37,0.15c0.71,0.15,1.72,0.48,2.51,1.22
										c0.78,0.74,1.17,1.73,1.36,2.43c0.2,0.75,0.22,1.33,0.22,1.36l0.01,0.22l-0.22,0.01c-0.02,0-0.6,0.01-1.37-0.15
										c-0.71-0.15-1.72-0.48-2.51-1.22c-0.78-0.74-1.17-1.73-1.36-2.43c-0.2-0.75-0.22-1.33-0.22-1.36L354.76,296.11z
										 M359.98,301.04c-0.06-0.6-0.33-2.21-1.43-3.25c-1.1-1.04-2.72-1.21-3.32-1.24c0.06,0.6,0.33,2.21,1.43,3.25
										C357.76,300.84,359.38,301.01,359.98,301.04z"/>
								</g>
							</g>
						</g>
					</g>
				</g>
				<g>
					<g>
						<path class="st1" d="M360.61,297.65c1.32,1.77,0.97,4.26,0.97,4.26s-2.49-0.37-3.81-2.14c-1.32-1.77-0.97-4.26-0.97-4.26
							S359.29,295.88,360.61,297.65z"/>
					</g>
				</g>
			</g>
		</g>
	</g>
	<g>
		<path class="st0" d="M343.31,260.35l2.5-3.33l-10.6-17.35c0,0-1.77-3.09-2.94-2.85s-83.1,0.24-84.28,0s-2.94,2.85-2.94,2.85
			l-10.6,17.35l2.5,3.33H343.31z"/>
		<path class="st1" d="M345.81,257.02l-10.6-17.35c0,0-1.77-3.09-2.94-2.85c-0.28,0.06-5.1,0.1-12.3,0.13
			c-0.38,5.48-1.29,10.7-5.85,13.88c-12.28,8.44-26.49,2.3-40.3,5.76c-3.01,0.92-5.84,2.24-8.59,3.76h78.08L345.81,257.02z"/>
		<linearGradient id="SVGID_1_" gradientUnits="userSpaceOnUse" x1="221.6456" y1="319.6175" x2="239.8952" y2="319.6175">
			<stop  offset="0" style="stop-color:#444B8C"/>
			<stop  offset="0.9964" style="stop-color:#3E4177"/>
		</linearGradient>
		<path class="st5" d="M221.65,308.62v14.86c0,0,0.15,6.92,3.83,7.06c3.68,0.15,11.19,0,11.19,0s3.24-0.29,3.24-2.5s0-11.04,0-11.04
			L221.65,308.62z"/>
		<path class="st6" d="M359.06,308.62v14.86c0,0-0.15,6.92-3.83,7.06c-3.68,0.15-11.19,0-11.19,0s-3.24-0.29-3.24-2.5
			s0-11.04,0-11.04L359.06,308.62z"/>
		<path class="st6" d="M234.11,259.12h-2.45c-1.41,0-2.55-1.14-2.55-2.55v-2.68c0-1.53-1.35-2.7-2.86-2.48
			c-4.1,0.6-11.17,2.11-11.17,5.45c0,1.57,1.67,4.81,4.71,4.91s13.54,0.78,13.54,0.78L234.11,259.12z"/>
		<path class="st6" d="M346.16,259.12h2.45c1.41,0,2.55-1.14,2.55-2.55v-2.68c0-1.53,1.35-2.7,2.86-2.48
			c4.1,0.6,11.17,2.11,11.17,5.45c0,1.57-1.67,4.81-4.71,4.91c-3.04,0.1-13.54,0.78-13.54,0.78L346.16,259.12z"/>
		<path class="st6" d="M361.85,285.51c0,0,0.2-3.9-2.06-7.51c-1.68-2.68-8.68-12.07-8.68-12.07l-17.53-29.05
			c-0.89-1.5-2.14-2.18-3.44-2.43c-0.96-0.26-2.34-0.46-4.35-0.5c-6.48-0.15-64.85-0.15-71.33,0c-2.01,0.05-3.39,0.25-4.35,0.5
			c-1.3,0.25-2.56,0.94-3.44,2.44l-17.52,29.05c0,0-6.95,9.42-8.68,12.07c-2.65,4.05-2.06,7.51-2.06,7.51s0.74,22.58,0.44,27.43
			c-0.29,4.86,142.86,4.86,142.56,0C361.12,308.09,361.85,285.51,361.85,285.51z M290.18,259.17h-0.1l-51.81-1.32
			c-0.62-0.12-1.14-0.27-1.59-0.42c1.33-2.5,7-13.01,10.5-17.54l85.96,0.09c3.51,4.58,9.11,14.96,10.43,17.44
			c-0.45,0.15-0.97,0.29-1.59,0.42L290.18,259.17z"/>
		<path class="st7" d="M324.55,324.17c0,0,31.8-1.29,35.9-8.63c2.26-4.05,2.6-6.87,2.45-8.58c-0.1-1.15-1.14-1.98-2.28-1.82
			c-3.9,0.56-13.38,1.9-17.1,2.14c-13.35,0.84-93.44,0.84-106.79,0c-3.71-0.23-13.2-1.57-17.1-2.14c-1.14-0.17-2.18,0.67-2.28,1.82
			c-0.15,1.72,0.19,4.54,2.45,8.58c4.1,7.34,35.9,8.63,35.9,8.63H324.55z"/>
		<path class="st7" d="M236.73,307.28c-3.71-0.23-13.2-1.57-17.1-2.14c-0.56-0.08-1.1,0.08-1.51,0.4c2.03,1.12,3.99,2.41,5.96,3.54
			c0,0,2.88,1.46,5.98,2.58c11.4,4.12,57.58,4.22,57.58,4.22s32.14,0.07,54.89-1.73c2.52-0.2,8.47-0.75,13.63-4.89
			c1.9-1.53,3.14-3.1,3.81-4.03c-4.21,0.61-12.92,1.82-16.44,2.04C330.17,308.12,250.09,308.12,236.73,307.28z"/>
		<path class="st1" d="M331.14,288.38l-1.04-2.55c-0.55-1.35-1.86-2.22-3.31-2.22h-73.29c-1.45,0-2.76,0.88-3.31,2.22l-1.04,2.55
			c-0.96,2.36,0.77,4.94,3.31,4.94h75.38C330.37,293.31,332.1,290.73,331.14,288.38z"/>
		<path class="st1" d="M330.85,298.43l-1.37,1.12c-0.19,0.15-0.43,0.24-0.67,0.24h-77.35c-0.24,0-0.48-0.08-0.67-0.24l-1.37-1.12
			c-0.77-0.63-0.33-1.88,0.67-1.88h80.1C331.18,296.55,331.62,297.8,330.85,298.43z"/>
		<path class="st8" d="M252.41,283.75l-16.19-8.24c0,0-6.03-3.24-8.39-1.91c-2.35,1.32-3.68,5.45-3.68,7.65
			c0,2.21,0.29,11.92,25.46,11.92c2.5,0,4.49-2.35,4.78-5.3S252.41,283.75,252.41,283.75z"/>
		<path class="st8" d="M327.86,283.75l16.19-8.24c0,0,6.03-3.24,8.39-1.91s3.68,5.45,3.68,7.65c0,2.21-0.29,11.92-25.46,11.92
			c-2.5,0-4.49-2.35-4.78-5.3C325.58,284.93,327.86,283.75,327.86,283.75z"/>
	</g>
	<g>
		<g>
			<polygon class="st9" points="234.48,316.24 131.34,316.24 133.22,309.45 136.88,296.18 139.1,288.15 142.37,276.31 
				148.68,253.48 151.95,241.64 174.95,158.39 190.86,158.39 199.29,188.9 213.86,241.64 217.14,253.48 223.44,276.31 
				226.72,288.15 232.6,309.45 			"/>
			<path class="st10" d="M234.48,316.24H131.34l1.88-6.79l3.66-13.27c71.87-4.25,62.41-107.29,62.41-107.29l33.31,120.55
				L234.48,316.24z"/>
			<rect x="110.24" y="316.24" class="st9" width="145.34" height="13.82"/>
			<polygon class="st9" points="234.48,316.24 131.34,316.24 133.22,309.45 232.6,309.45 			"/>
			<path class="st10" d="M217.14,253.48c0,0-2.16,45.58-54.53,56.01l69.99-0.04L217.14,253.48z"/>
			<polygon class="st8" points="217.14,253.48 148.68,253.48 151.95,241.64 213.86,241.64 			"/>
			<polygon class="st8" points="226.72,288.15 139.1,288.15 142.37,276.31 223.44,276.31 			"/>
			<path class="st9" d="M221.96,316.24c0,0-19.26,14.54-90.62,13.82h124.23v-13.82L221.96,316.24z"/>
		</g>
		<g>
			<path class="st11" d="M336.11,334.62H144.56c-0.88,0-1.59-0.71-1.59-1.59v-1.55c0-0.88,0.71-1.59,1.59-1.59h191.55
				c0.88,0,1.59,0.71,1.59,1.59v1.55C337.71,333.91,336.99,334.62,336.11,334.62z"/>
			<path class="st11" d="M149.65,334.62h-32.26c-0.88,0-1.59-0.71-1.59-1.59v-1.55c0-0.88,0.71-1.59,1.59-1.59h32.26
				c0.88,0,1.59,0.71,1.59,1.59v1.55C151.24,333.91,150.53,334.62,149.65,334.62z"/>
			<path class="st11" d="M104.76,334.62H70.93c-0.88,0-1.59-0.71-1.59-1.59v-1.55c0-0.88,0.71-1.59,1.59-1.59h33.82
				c0.88,0,1.59,0.71,1.59,1.59v1.55C106.35,333.91,105.64,334.62,104.76,334.62z"/>
			<path class="st11" d="M377.15,334.62h-28.03c-0.88,0-1.59-0.71-1.59-1.59v-1.55c0-0.88,0.71-1.59,1.59-1.59h28.03
				c0.88,0,1.59,0.71,1.59,1.59v1.55C378.74,333.91,378.03,334.62,377.15,334.62z"/>
			<path class="st11" d="M411.85,334.62h-21.68c-0.88,0-1.59-0.71-1.59-1.59v-1.55c0-0.88,0.71-1.59,1.59-1.59h21.68
				c0.88,0,1.59,0.71,1.59,1.59v1.55C413.44,333.91,412.73,334.62,411.85,334.62z"/>
		</g>
	</g>
	<text transform="matrix(1 0 0 1 97.8096 378.1318)" class="st9 st12 st13">Sorry! Car Not found in Inventory.</text>
</g>
</svg>
