<svg id="Layer_1" data-name="Layer 1" xmlns="http://www.w3.org/2000/svg" viewBox="0 0 500 273.27"><defs><style>.cls-1{fill:#242850;}.cls-2{fill:#ff542b;}.cls-3{fill:#fff;}.cls-4{fill:#8f999e;}.cls-5{fill:#e1e5e6;}.cls-6{fill:#ebebeb;}.cls-7{fill:#d1d1d1;}.cls-8{fill:#fffcf3;}</style></defs><rect class="cls-1" x="136.17" y="230.34" width="199.91" height="1.58"/><rect class="cls-1" x="409.91" y="230.34" width="11.28" height="1.58"/><polygon class="cls-2" points="149.06 206.04 150.77 231.13 178.06 231.13 176.22 204.18 149.06 206.04"/><path class="cls-2" d="M178.9,231.92H150l-1.82-26.61,28.75-2Zm-27.39-1.58h25.7L175.49,205l-25.59,1.75Z"/><polygon class="cls-2" points="126.47 231.13 158 154.39 132.8 146.85 97.99 231.13 126.47 231.13"/><path class="cls-2" d="M127,231.92H96.81l35.53-86,26.72,8Zm-27.83-1.58h26.77l31-75.44-23.67-7.09Z"/><path class="cls-3" d="M190.8,231.13h29.68c-.11-1.2-.22-2.43-.31-3.68q-1.47-21.84,3.62-32.58t15.36-11.41q10-.72,16.33,9.25c4.23,6.65,6.81,17.23,7.82,31.79.16,2.31.26,4.51.31,6.63h30.07c0-2.83-.08-5.71-.28-8.67a112,112,0,0,0-4.77-26.36A61.21,61.21,0,0,0,278,175.67a44.74,44.74,0,0,0-16.88-12.81c-6.69-2.88-14.4-4.06-23.18-3.46-8.94.61-16.52,2.81-22.8,6.6A44.26,44.26,0,0,0,200,181a63.55,63.55,0,0,0-8,21.68,106.45,106.45,0,0,0-1.33,26.81C190.7,230,190.75,230.57,190.8,231.13Z"/><path class="cls-4" d="M294.47,231.92H262.83v-.78c-.05-2.14-.16-4.36-.31-6.58-1-14.41-3.59-25-7.7-31.43s-9.27-9.34-15.6-8.88c-6.59.44-11.4,4-14.71,11S220,213.06,221,227.39q.14,1.88.3,3.66l.09.87H190.07l-.1-1.19-.09-1.21a108.07,108.07,0,0,1,1.34-27,64.74,64.74,0,0,1,8.14-22,45.16,45.16,0,0,1,15.34-15.23c6.36-3.84,14.15-6.09,23.16-6.71,8.81-.6,16.73.59,23.54,3.52a45.88,45.88,0,0,1,17.18,13,62.21,62.21,0,0,1,10.81,20.69,113,113,0,0,1,4.79,26.54c.2,2.85.3,5.78.29,8.73Zm-30.09-1.58h28.51c0-2.65-.11-5.28-.28-7.83a111.27,111.27,0,0,0-4.73-26.17,60.75,60.75,0,0,0-10.52-20.17,44.33,44.33,0,0,0-16.59-12.59c-6.58-2.83-14.25-4-22.8-3.39-8.75.6-16.31,2.78-22.45,6.49a43.49,43.49,0,0,0-14.81,14.7,63.15,63.15,0,0,0-7.93,21.42,105.83,105.83,0,0,0-1.32,26.61c0,.31,0,.62.07.93h28.08c-.08-.93-.16-1.87-.22-2.84-1-14.61.25-25.7,3.68-33s8.92-11.38,16-11.86c.46,0,.93,0,1.39,0,6.34,0,11.61,3.25,15.66,9.67,4.3,6.76,6.9,17.28,7.94,32.16C264.23,226.43,264.32,228.41,264.38,230.34Z"/><polygon class="cls-2" points="404.18 231.13 402.17 218.67 388 219.63 385.86 188.14 358.69 190 360.84 221.46 332.7 223.41 367.67 138.35 342.43 130.8 301 231.13 404.18 231.13"/><path class="cls-2" d="M405.11,231.92H299.82L342,129.84l26.75,8-34.82,84.69L360,220.72l-2.15-31.46,28.74-2,2.15,31.5,14.1-.95Zm-102.93-1.58H403.25l-1.75-10.83-14.23,1L385.12,189l-25.59,1.75,2.16,31.46-30.21,2.09,35.13-85.42-23.72-7.1Z"/><path class="cls-5" d="M250.72,167c.27,3.37-6.6,6.67-15.35,7.37s-16.05-1.45-16.33-4.82,6.6-6.67,15.35-7.38S250.45,163.59,250.72,167Z"/><path class="cls-5" d="M266.12,168.84c-.49,1.36-3.44,1.55-6.6.41s-5.33-3.15-4.84-4.51,3.44-1.54,6.6-.41S266.61,167.48,266.12,168.84Z"/><rect class="cls-1" x="78.81" y="230.34" width="9.48" height="1.58"/><rect class="cls-1" x="118.72" y="243.23" width="9.27" height="1.58"/><rect class="cls-1" x="141.24" y="243.23" width="16.75" height="1.58"/><rect class="cls-1" x="336.09" y="243.23" width="7.47" height="1.58"/><rect class="cls-1" x="352.59" y="243.23" width="32.46" height="1.58"/><rect class="cls-1" x="105.01" y="254.19" width="8.18" height="1.58"/><rect class="cls-1" x="389.12" y="254.19" width="8.18" height="1.58"/><path class="cls-6" d="M226.33,167.84h0a2,2,0,0,1-2-2c0-17.25-5.1-28.56-6.42-30.67a2,2,0,0,1-.55-1,2,2,0,0,1,2.81-2.22c1.85.9,4.63,9.65,4.66,9.73a80.7,80.7,0,0,1,3.45,24.16A2,2,0,0,1,226.33,167.84Z"/><path class="cls-6" d="M273.31,145.62a2,2,0,0,1-1.43-3.34c1.33-1.4,4.79-6,3.26-8.66s-8.05-5.3-11.74-6.23a2,2,0,0,1,1-3.83c1.15.28,11.26,2.94,14.21,8.1,3.31,5.78-3.54,13.05-3.83,13.35A2,2,0,0,1,273.31,145.62Z"/><path class="cls-6" d="M259.41,73.35a2,2,0,0,1-.92-.23,2,2,0,0,1-.83-2.67L270.8,45.51a2,2,0,1,1,3.5,1.84L261.16,72.29A2,2,0,0,1,259.41,73.35Z"/><path class="cls-6" d="M208.19,90.78H208l-31.74-3.32a2,2,0,1,1,.41-3.93l31.74,3.32a2,2,0,0,1-.2,3.94Z"/><path class="cls-3" d="M274.93,128.24,222.4,144.49a2,2,0,0,1-2.51-1.33l-19.2-62.07a2.05,2.05,0,0,1,.14-1.52l6.77-13a2,2,0,0,1,1.19-1l42.68-13.2A2,2,0,0,1,254,53.72l22.27,72A2,2,0,0,1,274.93,128.24Z"/><path class="cls-7" d="M221.81,145.37a2.77,2.77,0,0,1-2.67-2l-19.2-62.08a2.79,2.79,0,0,1,.19-2.12l6.77-13a2.82,2.82,0,0,1,1.65-1.38l42.69-13.2a2.92,2.92,0,0,1,.83-.12,2.79,2.79,0,0,1,2.67,2l22.27,72a2.8,2.8,0,0,1-1.85,3.5l-52.53,16.24A2.51,2.51,0,0,1,221.81,145.37ZM252.07,53.1a1.08,1.08,0,0,0-.36,0L209,66.35a1.23,1.23,0,0,0-.72.6l-6.77,13a1.18,1.18,0,0,0-.08.92l19.2,62.08a1.22,1.22,0,0,0,1.52.8l52.53-16.24a1.21,1.21,0,0,0,.71-.6,1.22,1.22,0,0,0,.09-.92L253.23,54A1.21,1.21,0,0,0,252.07,53.1Z"/><path class="cls-7" d="M240.28,90.33c.93,4-.85,8.34-4,9.73s-6.38-.73-7.31-4.72.85-8.34,4-9.73S239.36,86.34,240.28,90.33Z"/><path class="cls-8" d="M233,85.61A6.9,6.9,0,0,0,229.69,89a4.71,4.71,0,0,0,5.41,1.1,6.84,6.84,0,0,0,3.27-3.41A4.71,4.71,0,0,0,233,85.61Z"/><path class="cls-8" d="M208,66l-.06.07-7.27,13.78a1.63,1.63,0,0,0-.08.37l8.91-2.75A2,2,0,0,0,210.83,75Z"/><path class="cls-7" d="M199.69,81.36l.15-1.22a2.36,2.36,0,0,1,.12-.51l0-.13,7.42-14,.09-.09.92-.81,3.15,10.18a2.79,2.79,0,0,1-.2,2.1,2.7,2.7,0,0,1-1.62,1.34ZM207.84,68,202.08,79l7.22-2.24a1.12,1.12,0,0,0,.69-.57,1.15,1.15,0,0,0,.09-.89Z"/><path class="cls-4" d="M242.32,76.84a1.66,1.66,0,1,1-1.85-1.45A1.67,1.67,0,0,1,242.32,76.84Z"/><path class="cls-4" d="M226,83a1.67,1.67,0,1,1-1.86-1.45A1.67,1.67,0,0,1,226,83Z"/><path class="cls-6" d="M153.34,33.45h-29a2.87,2.87,0,0,1-2.07-.89,2.8,2.8,0,0,1-.77-2.09,5.72,5.72,0,0,1,.19-1.24,6.13,6.13,0,0,1,8.5-4,9.8,9.8,0,0,1,19.11-.16A5.69,5.69,0,0,1,151,25a5.86,5.86,0,0,1,5.21,5.52,2.79,2.79,0,0,1-.77,2.05A2.9,2.9,0,0,1,153.34,33.45Zm-25.7-7.38a5.12,5.12,0,0,0-.87.08,4.73,4.73,0,0,0-3.69,3.43,5.32,5.32,0,0,0-.15,1,1.38,1.38,0,0,0,.39,1,1.41,1.41,0,0,0,1,.45h29a1.48,1.48,0,0,0,1-.44,1.31,1.31,0,0,0,.37-1,4.47,4.47,0,0,0-3.93-4.22,4.39,4.39,0,0,0-1.84.19l-.79.26-.13-.82a8.39,8.39,0,0,0-16.63.38l-.12,1.19-1-.69A4.67,4.67,0,0,0,127.64,26.07Z"/><path class="cls-6" d="M351.32,33.19H327.44a3.6,3.6,0,0,1-2.54-1.06,3.32,3.32,0,0,1-1-2.36,6.64,6.64,0,0,1,.12-1.26,6.91,6.91,0,0,1,8.42-5.43,9.41,9.41,0,0,1,8.5-5.31,9.52,9.52,0,0,1,9.1,6.87,5.16,5.16,0,0,1,4.8,5.14A3.47,3.47,0,0,1,351.32,33.19ZM330.81,24.3a5.47,5.47,0,0,0-5.39,4.47,5.65,5.65,0,0,0-.1,1,1.92,1.92,0,0,0,.58,1.36,2.15,2.15,0,0,0,1.54.64h23.88a2.09,2.09,0,0,0,2.12-2,3.75,3.75,0,0,0-3.74-3.76l-.17,0-.6,0-.12-.58A8.08,8.08,0,0,0,341,19.18a8,8,0,0,0-7.45,5l-.25.62-.64-.22A5.33,5.33,0,0,0,330.81,24.3Z"/></svg>