<svg width="41" height="39" viewBox="0 0 41 39" fill="none" xmlns="http://www.w3.org/2000/svg">
<ellipse cx="20.5" cy="19.5" rx="20.5" ry="19.5" fill="#F4F4F4"/>
<path d="M22.1875 9C18.1038 9 14.5262 11.9025 13.75 15.75C10.0375 15.75 7 18.7875 7 22.5C7 26.2125 10.0375 29.25 13.75 29.25H28.9375C31.7388 29.25 34 26.9888 34 24.1875C34 21.9937 32.5825 19.8337 30.625 19.125V17.4375C30.625 12.78 26.845 9 22.1875 9Z" fill="#777777"/>
<path d="M17.6094 21.5859L18.3672 21.7773C18.2083 22.3997 17.9219 22.875 17.5078 23.2031C17.0964 23.5286 16.5924 23.6914 15.9961 23.6914C15.3789 23.6914 14.8763 23.5664 14.4883 23.3164C14.1029 23.0638 13.8086 22.6992 13.6055 22.2227C13.4049 21.7461 13.3047 21.2344 13.3047 20.6875C13.3047 20.0911 13.418 19.5716 13.6445 19.1289C13.8737 18.6836 14.1979 18.3464 14.6172 18.1172C15.0391 17.8854 15.5026 17.7695 16.0078 17.7695C16.5807 17.7695 17.0625 17.9154 17.4531 18.207C17.8438 18.4987 18.1159 18.9089 18.2695 19.4375L17.5234 19.6133C17.3906 19.1966 17.1979 18.8932 16.9453 18.7031C16.6927 18.513 16.375 18.418 15.9922 18.418C15.5521 18.418 15.1836 18.5234 14.8867 18.7344C14.5924 18.9453 14.3854 19.2292 14.2656 19.5859C14.1458 19.9401 14.0859 20.306 14.0859 20.6836C14.0859 21.1706 14.1562 21.5964 14.2969 21.9609C14.4401 22.3229 14.6615 22.5938 14.9609 22.7734C15.2604 22.9531 15.5846 23.043 15.9336 23.043C16.3581 23.043 16.7174 22.9206 17.0117 22.6758C17.306 22.431 17.5052 22.0677 17.6094 21.5859ZM18.9531 21.5195C18.9531 20.7513 19.1667 20.1823 19.5938 19.8125C19.9505 19.5052 20.3854 19.3516 20.8984 19.3516C21.4688 19.3516 21.9349 19.5391 22.2969 19.9141C22.6589 20.2865 22.8398 20.8021 22.8398 21.4609C22.8398 21.9948 22.7591 22.4154 22.5977 22.7227C22.4388 23.0273 22.2057 23.2643 21.8984 23.4336C21.5938 23.6029 21.2604 23.6875 20.8984 23.6875C20.3177 23.6875 19.8477 23.5013 19.4883 23.1289C19.1315 22.7565 18.9531 22.2201 18.9531 21.5195ZM19.6758 21.5195C19.6758 22.0508 19.7917 22.4492 20.0234 22.7148C20.2552 22.9779 20.5469 23.1094 20.8984 23.1094C21.2474 23.1094 21.5378 22.9766 21.7695 22.7109C22.0013 22.4453 22.1172 22.0404 22.1172 21.4961C22.1172 20.9831 22 20.5951 21.7656 20.332C21.5339 20.0664 21.2448 19.9336 20.8984 19.9336C20.5469 19.9336 20.2552 20.0651 20.0234 20.3281C19.7917 20.5911 19.6758 20.9883 19.6758 21.5195ZM27.168 22.918V23.5938H23.3828C23.3776 23.4245 23.4049 23.2617 23.4648 23.1055C23.5612 22.8477 23.7148 22.5938 23.9258 22.3438C24.1393 22.0938 24.4466 21.8047 24.8477 21.4766C25.4701 20.9661 25.8906 20.5625 26.1094 20.2656C26.3281 19.9661 26.4375 19.6836 26.4375 19.418C26.4375 19.1393 26.3372 18.9049 26.1367 18.7148C25.9388 18.5221 25.6797 18.4258 25.3594 18.4258C25.0208 18.4258 24.75 18.5273 24.5469 18.7305C24.3438 18.9336 24.2409 19.2148 24.2383 19.5742L23.5156 19.5C23.5651 18.9609 23.7513 18.5508 24.0742 18.2695C24.3971 17.9857 24.8307 17.8438 25.375 17.8438C25.9245 17.8438 26.3594 17.9961 26.6797 18.3008C27 18.6055 27.1602 18.9831 27.1602 19.4336C27.1602 19.6628 27.1133 19.888 27.0195 20.1094C26.9258 20.3307 26.7695 20.5638 26.5508 20.8086C26.3346 21.0534 25.974 21.3893 25.4688 21.8164C25.0469 22.1706 24.776 22.4115 24.6562 22.5391C24.5365 22.6641 24.4375 22.7904 24.3594 22.918H27.168Z" fill="white"/>
</svg>
