<svg width="62" height="59" viewBox="0 0 62 59" fill="none" xmlns="http://www.w3.org/2000/svg">
<ellipse cx="30.8904" cy="29.3836" rx="30.8904" ry="29.3836" fill="#F4F4F4"/>
<path d="M33.4331 13.5586C27.2795 13.5586 21.8888 17.9322 20.7191 23.7298C15.1249 23.7298 10.5479 28.3069 10.5479 33.9011C10.5479 39.4952 15.1249 44.0723 20.7191 44.0723H43.6044C47.8254 44.0723 51.2328 40.6649 51.2328 36.4439C51.2328 33.1382 49.0968 29.8834 46.1472 28.8154V26.2726C46.1472 19.2545 40.4513 13.5586 33.4331 13.5586Z" fill="#777777"/>
<path d="M27.7031 30.9922L28.4609 31.1836C28.3021 31.806 28.0156 32.2812 27.6016 32.6094C27.1901 32.9349 26.6862 33.0977 26.0898 33.0977C25.4727 33.0977 24.9701 32.9727 24.582 32.7227C24.1966 32.4701 23.9023 32.1055 23.6992 31.6289C23.4987 31.1523 23.3984 30.6406 23.3984 30.0938C23.3984 29.4974 23.5117 28.9779 23.7383 28.5352C23.9674 28.0898 24.2917 27.7526 24.7109 27.5234C25.1328 27.2917 25.5964 27.1758 26.1016 27.1758C26.6745 27.1758 27.1562 27.3216 27.5469 27.6133C27.9375 27.9049 28.2096 28.3151 28.3633 28.8438L27.6172 29.0195C27.4844 28.6029 27.2917 28.2995 27.0391 28.1094C26.7865 27.9193 26.4688 27.8242 26.0859 27.8242C25.6458 27.8242 25.2773 27.9297 24.9805 28.1406C24.6862 28.3516 24.4792 28.6354 24.3594 28.9922C24.2396 29.3464 24.1797 29.7122 24.1797 30.0898C24.1797 30.5768 24.25 31.0026 24.3906 31.3672C24.5339 31.7292 24.7552 32 25.0547 32.1797C25.3542 32.3594 25.6784 32.4492 26.0273 32.4492C26.4518 32.4492 26.8112 32.3268 27.1055 32.082C27.3997 31.8372 27.599 31.474 27.7031 30.9922ZM29.0469 30.9258C29.0469 30.1576 29.2604 29.5885 29.6875 29.2188C30.0443 28.9115 30.4792 28.7578 30.9922 28.7578C31.5625 28.7578 32.0286 28.9453 32.3906 29.3203C32.7526 29.6927 32.9336 30.2083 32.9336 30.8672C32.9336 31.401 32.8529 31.8216 32.6914 32.1289C32.5326 32.4336 32.2995 32.6706 31.9922 32.8398C31.6875 33.0091 31.3542 33.0938 30.9922 33.0938C30.4115 33.0938 29.9414 32.9076 29.582 32.5352C29.2253 32.1628 29.0469 31.6263 29.0469 30.9258ZM29.7695 30.9258C29.7695 31.457 29.8854 31.8555 30.1172 32.1211C30.349 32.3841 30.6406 32.5156 30.9922 32.5156C31.3411 32.5156 31.6315 32.3828 31.8633 32.1172C32.0951 31.8516 32.2109 31.4466 32.2109 30.9023C32.2109 30.3893 32.0938 30.0013 31.8594 29.7383C31.6276 29.4727 31.3385 29.3398 30.9922 29.3398C30.6406 29.3398 30.349 29.4714 30.1172 29.7344C29.8854 29.9974 29.7695 30.3945 29.7695 30.9258ZM37.2617 32.3242V33H33.4766C33.4714 32.8307 33.4987 32.668 33.5586 32.5117C33.6549 32.2539 33.8086 32 34.0195 31.75C34.2331 31.5 34.5404 31.2109 34.9414 30.8828C35.5638 30.3724 35.9844 29.9688 36.2031 29.6719C36.4219 29.3724 36.5312 29.0898 36.5312 28.8242C36.5312 28.5456 36.431 28.3112 36.2305 28.1211C36.0326 27.9284 35.7734 27.832 35.4531 27.832C35.1146 27.832 34.8438 27.9336 34.6406 28.1367C34.4375 28.3398 34.3346 28.6211 34.332 28.9805L33.6094 28.9062C33.6589 28.3672 33.8451 27.957 34.168 27.6758C34.4909 27.3919 34.9245 27.25 35.4688 27.25C36.0182 27.25 36.4531 27.4023 36.7734 27.707C37.0938 28.0117 37.2539 28.3893 37.2539 28.8398C37.2539 29.069 37.207 29.2943 37.1133 29.5156C37.0195 29.737 36.8633 29.9701 36.6445 30.2148C36.4284 30.4596 36.0677 30.7956 35.5625 31.2227C35.1406 31.5768 34.8698 31.8177 34.75 31.9453C34.6302 32.0703 34.5312 32.1966 34.4531 32.3242H37.2617Z" fill="#FCFCFC"/>
</svg>
