<svg width="62" height="59" viewBox="0 0 62 59" fill="none" xmlns="http://www.w3.org/2000/svg">
<ellipse cx="30.8904" cy="29.3836" rx="30.8904" ry="29.3836" fill="#F4F4F4"/>
<path d="M30.8519 17C28.8716 17 26.1669 18.2046 24.8428 19.6766L18.0575 27.2161C17.1741 28.1971 16.7615 30.0334 17.1413 31.2992L19.3618 38.7008C19.7405 39.9651 21.1316 41.0001 22.452 41.0001H43.4001C43.7153 41.0002 44.0274 40.9382 44.3187 40.8176C44.6099 40.697 44.8745 40.5202 45.0974 40.2974C45.3203 40.0745 45.4971 39.8098 45.6177 39.5186C45.7383 39.2274 45.8003 38.9152 45.8002 38.6V17H30.8519ZM43.4001 32.5999H38.6002V30.1998H43.4001V32.5999ZM43.4001 27.7996H20.76L26.6262 21.2822C27.4982 20.3142 29.5512 19.3998 30.8519 19.3998H43.4001V27.7996Z" fill="#777777"/>
</svg>
