<svg width="62" height="59" viewBox="0 0 62 59" fill="none" xmlns="http://www.w3.org/2000/svg">
<ellipse cx="30.8904" cy="29.3836" rx="30.8904" ry="29.3836" fill="#F4F4F4"/>
<g clip-path="url(#clip0_602_9827)">
<path d="M18.082 40.6848V18.082C18.082 17.6824 18.2408 17.2991 18.5234 17.0165C18.806 16.734 19.1893 16.5752 19.5889 16.5752H33.1505C33.5502 16.5752 33.9335 16.734 34.216 17.0165C34.4986 17.2991 34.6574 17.6824 34.6574 18.082V30.1368H37.6711C38.4704 30.1368 39.2369 30.4544 39.8021 31.0195C40.3673 31.5847 40.6848 32.3513 40.6848 33.1505V39.1779C40.6848 39.5776 40.8435 39.9608 41.1261 40.2434C41.4087 40.526 41.792 40.6848 42.1916 40.6848C42.5913 40.6848 42.9745 40.526 43.2571 40.2434C43.5397 39.9608 43.6985 39.5776 43.6985 39.1779V28.63H40.6848C40.2851 28.63 39.9019 28.4712 39.6193 28.1886C39.3367 27.9061 39.1779 27.5228 39.1779 27.1231V21.7196L36.6811 19.2227L38.8118 17.092L46.2707 24.5509C46.4108 24.6907 46.5219 24.8567 46.5977 25.0396C46.6735 25.2224 46.7124 25.4184 46.7122 25.6163V39.1779C46.7122 40.3769 46.2359 41.5267 45.3881 42.3744C44.5404 43.2222 43.3906 43.6985 42.1916 43.6985C40.9927 43.6985 39.8429 43.2222 38.9951 42.3744C38.1474 41.5267 37.6711 40.3769 37.6711 39.1779V33.1505H34.6574V40.6848H36.1642V43.6985H16.5752V40.6848H18.082ZM21.0957 19.5889V28.63H31.6437V19.5889H21.0957Z" fill="#777777"/>
</g>
<defs>
<clipPath id="clip0_602_9827">
<rect width="36.1644" height="36.1644" fill="white" transform="translate(13.5615 12.0547)"/>
</clipPath>
</defs>
</svg>
