<svg width="41" height="39" viewBox="0 0 41 39" fill="none" xmlns="http://www.w3.org/2000/svg">
<ellipse cx="20.5" cy="19.5" rx="20.5" ry="19.5" fill="#F4F4F4"/>
<g clip-path="url(#clip0_649_5545)">
<path d="M12 27V12C12 11.7348 12.1054 11.4804 12.2929 11.2929C12.4804 11.1054 12.7348 11 13 11H22C22.2652 11 22.5196 11.1054 22.7071 11.2929C22.8946 11.4804 23 11.7348 23 12V20H25C25.5304 20 26.0391 20.2107 26.4142 20.5858C26.7893 20.9609 27 21.4696 27 22V26C27 26.2652 27.1054 26.5196 27.2929 26.7071C27.4804 26.8946 27.7348 27 28 27C28.2652 27 28.5196 26.8946 28.7071 26.7071C28.8946 26.5196 29 26.2652 29 26V19H27C26.7348 19 26.4804 18.8946 26.2929 18.7071C26.1054 18.5196 26 18.2652 26 18V14.414L24.343 12.757L25.757 11.343L30.707 16.293C30.8 16.3857 30.8738 16.4959 30.924 16.6173C30.9743 16.7386 31.0001 16.8687 31 17V26C31 26.7956 30.6839 27.5587 30.1213 28.1213C29.5587 28.6839 28.7956 29 28 29C27.2044 29 26.4413 28.6839 25.8787 28.1213C25.3161 27.5587 25 26.7956 25 26V22H23V27H24V29H11V27H12ZM14 13V19H21V13H14Z" fill="#777777"/>
</g>
<defs>
<clipPath id="clip0_649_5545">
<rect width="24" height="24" fill="white" transform="translate(9 8)"/>
</clipPath>
</defs>
</svg>
