<svg width="62" height="59" viewBox="0 0 62 59" fill="none" xmlns="http://www.w3.org/2000/svg">
<ellipse cx="30.8904" cy="29.3836" rx="30.8904" ry="29.3836" fill="#F4F4F4"/>
<g clip-path="url(#clip0_602_9816)">
<path d="M45.2054 18.4105C45.2054 16.5134 43.6238 14.9857 41.7073 15.074C40.0103 15.1521 38.627 16.5193 38.5306 18.2153C38.4501 19.6298 39.2506 20.8667 40.4337 21.4288V26.0452C40.4337 27.0993 39.5791 27.9538 38.525 27.9538H33.9086C33.5787 27.2594 33.0163 26.697 32.3219 26.367V21.4288C33.505 20.8666 34.3054 19.6298 34.225 18.2153C34.1285 16.5193 32.7452 15.1521 31.0483 15.074C29.1317 14.9857 27.5502 16.5134 27.5502 18.4105C27.5502 19.7428 28.3305 20.8927 29.4588 21.4288V26.3671C28.7644 26.6971 28.202 27.2594 27.872 27.9539H21.3469V21.4288C22.53 20.8666 23.3305 19.6298 23.25 18.2153C23.1536 16.5193 21.7702 15.1521 20.0733 15.074C18.1568 14.9857 16.5752 16.5134 16.5752 18.4105C16.5752 19.7428 17.3555 20.8927 18.4839 21.4288V37.3419C17.3008 37.9041 16.5003 39.1409 16.5808 40.5554C16.6772 42.2514 18.0605 43.6186 19.7575 43.6968C21.674 43.785 23.2555 42.2573 23.2555 40.3602C23.2555 39.0279 22.4753 37.878 21.3469 37.3419V30.8169H27.8719C28.2019 31.5113 28.7643 32.0738 29.4587 32.4037V37.342C28.2756 37.9041 27.4751 39.1409 27.5556 40.5554C27.6521 42.2514 29.0354 43.6186 30.7323 43.6968C32.6489 43.7851 34.2304 42.2574 34.2304 40.3603C34.2304 39.0279 33.4501 37.8781 32.3217 37.342V32.4037C33.0162 32.0737 33.5786 31.5113 33.9085 30.8169H38.5249C41.1602 30.8169 43.2966 28.6805 43.2966 26.0452V21.4288C44.4251 20.8927 45.2054 19.7428 45.2054 18.4105Z" fill="#777777"/>
</g>
<defs>
<clipPath id="clip0_602_9816">
<rect width="28.6301" height="28.6301" fill="white" transform="translate(16.5752 15.0703)"/>
</clipPath>
</defs>
</svg>
