<svg width="41" height="39" viewBox="0 0 41 39" fill="none" xmlns="http://www.w3.org/2000/svg">
<ellipse cx="20.5" cy="19.5" rx="20.5" ry="19.5" fill="#F4F4F4"/>
<path d="M20.5 8.5625C17.6002 8.56568 14.82 9.71904 12.7695 11.7695C10.719 13.82 9.56568 16.6002 9.5625 19.5C10.1629 34.0102 30.8393 34.0059 31.4375 19.4999C31.4343 16.6001 30.2809 13.82 28.2304 11.7695C26.18 9.71903 23.3998 8.56568 20.5 8.5625ZM15.8125 26.3672V24.5859C15.813 24.2919 15.93 24.01 16.1379 23.802C16.3459 23.5941 16.6278 23.477 16.9219 23.4766H24.0781C24.3722 23.477 24.6541 23.5941 24.8621 23.802C25.07 24.01 25.187 24.2919 25.1875 24.5859V26.3672C25.187 26.6613 25.07 26.9432 24.8621 27.1511C24.6541 27.3591 24.3722 27.4761 24.0781 27.4766H16.9219C16.6278 27.4761 16.3459 27.3591 16.1379 27.1511C15.93 26.9432 15.813 26.6613 15.8125 26.3672ZM21.8242 20.1758C21.8255 20.4406 21.7473 20.6998 21.5998 20.9197C21.4523 21.1397 21.2422 21.3104 20.9967 21.4097C20.7512 21.509 20.4815 21.5325 20.2226 21.477C19.9636 21.4215 19.7272 21.2896 19.544 21.0984C19.3607 20.9072 19.239 20.6655 19.1945 20.4044C19.1501 20.1433 19.1849 19.8749 19.2946 19.6338C19.4043 19.3927 19.5837 19.1901 19.8097 19.052C20.0357 18.914 20.298 18.8469 20.5625 18.8594L22.3516 14.1211C22.3893 14.0255 22.4631 13.9487 22.5571 13.9071C22.6511 13.8656 22.7576 13.8628 22.8537 13.8993C22.9497 13.9357 23.0276 14.0086 23.0703 14.102C23.113 14.1954 23.1173 14.3019 23.082 14.3985L21.2969 19.1211C21.4605 19.244 21.5933 19.4033 21.6848 19.5863C21.7763 19.7693 21.824 19.9711 21.8242 20.1758ZM27.9336 19.8906C27.8309 19.8892 27.733 19.8474 27.6609 19.7743C27.5889 19.7012 27.5485 19.6027 27.5485 19.5C27.5485 19.3973 27.5889 19.2988 27.6609 19.2257C27.733 19.1526 27.8309 19.1108 27.9336 19.1094H28.6914C28.6392 17.9347 28.3312 16.7856 27.7891 15.7422L27.1328 16.1211C27.0885 16.1471 27.0394 16.1642 26.9885 16.1712C26.9376 16.1782 26.8857 16.1751 26.836 16.162C26.7863 16.149 26.7396 16.1262 26.6987 16.095C26.6578 16.0639 26.6235 16.0249 26.5977 15.9805C26.5466 15.8902 26.5331 15.7834 26.5602 15.6832C26.5872 15.5831 26.6526 15.4976 26.7422 15.4453L27.3945 15.0664C26.7616 14.078 25.922 13.2384 24.9336 12.6055L24.5547 13.2578C24.5292 13.3025 24.4951 13.3417 24.4544 13.3732C24.4138 13.4047 24.3672 13.4278 24.3176 13.4413C24.2679 13.4547 24.2161 13.4582 24.1651 13.4515C24.114 13.4449 24.0649 13.4282 24.0203 13.4024C23.9758 13.3767 23.9368 13.3424 23.9055 13.3015C23.8743 13.2606 23.8514 13.214 23.8383 13.1642C23.8251 13.1145 23.822 13.0626 23.8289 13.0116C23.8359 12.9607 23.8529 12.9116 23.8789 12.8672L24.2578 12.2109C23.2144 11.6688 22.0653 11.3608 20.8906 11.3086V12.0664C20.8891 12.169 20.8473 12.2669 20.7742 12.3389C20.7011 12.4109 20.6026 12.4513 20.5 12.4513C20.3974 12.4513 20.2989 12.4109 20.2258 12.3389C20.1527 12.2669 20.1109 12.169 20.1094 12.0664V11.3086C18.9347 11.3608 17.7856 11.6688 16.7422 12.2109L17.1211 12.8672C17.1467 12.9116 17.1634 12.9605 17.1701 13.0114C17.1768 13.0622 17.1735 13.1138 17.1602 13.1633C17.147 13.2128 17.1241 13.2593 17.093 13.2999C17.0618 13.3406 17.0229 13.3747 16.9785 13.4004C16.9341 13.426 16.8852 13.4427 16.8343 13.4494C16.7835 13.4561 16.7319 13.4528 16.6824 13.4395C16.6329 13.4263 16.5865 13.4034 16.5458 13.3723C16.5051 13.3411 16.471 13.3022 16.4453 13.2578L16.0664 12.6055C15.078 13.2384 14.2384 14.078 13.6055 15.0664L14.2578 15.4453C14.3308 15.4894 14.3876 15.556 14.4195 15.6351C14.4514 15.7142 14.4567 15.8015 14.4347 15.884C14.4127 15.9664 14.3644 16.0394 14.2973 16.092C14.2302 16.1446 14.1478 16.174 14.0625 16.1758C13.8698 16.1809 13.3764 15.8148 13.2109 15.7422C12.6688 16.7856 12.3608 17.9347 12.3086 19.1094H13.0664C13.1177 19.1094 13.1685 19.1195 13.2159 19.1391C13.2633 19.1587 13.3063 19.1875 13.3426 19.2238C13.3789 19.2601 13.4077 19.3031 13.4273 19.3505C13.4469 19.3979 13.457 19.4487 13.457 19.5C13.457 19.5513 13.4469 19.6021 13.4273 19.6495C13.4077 19.6969 13.3789 19.7399 13.3426 19.7762C13.3063 19.8125 13.2633 19.8413 13.2159 19.8609C13.1685 19.8805 13.1177 19.8906 13.0664 19.8906H12.3086C12.3659 21.1399 12.7108 22.359 13.3164 23.4531C13.341 23.498 13.3564 23.5472 13.3618 23.5981C13.3673 23.6489 13.3626 23.7003 13.3481 23.7493C13.3335 23.7983 13.3095 23.844 13.2772 23.8837C13.245 23.9233 13.2052 23.9562 13.1602 23.9805C13.1157 24.0058 13.0666 24.022 13.0158 24.028C12.965 24.0341 12.9135 24.0299 12.8643 24.0156C12.8152 24.0014 12.7693 23.9775 12.7296 23.9453C12.6898 23.9131 12.6569 23.8733 12.6328 23.8281C11.4941 21.7658 11.2126 19.3383 11.8493 17.0701C12.486 14.802 13.9896 12.8755 16.0352 11.707C23.9447 7.29307 32.6534 15.8129 28.3672 23.8281C28.3163 23.9167 28.2328 23.9818 28.1345 24.0094C28.0362 24.0371 27.9309 24.025 27.8414 23.9759C27.7519 23.9268 27.6852 23.8445 27.6557 23.7468C27.6262 23.649 27.6362 23.5436 27.6836 23.4531C28.2892 22.359 28.6341 21.1399 28.6914 19.8906H27.9336Z" fill="#777777"/>
<path d="M20.4999 19.6367C20.3575 19.6384 20.2216 19.6962 20.1215 19.7975C20.0214 19.8987 19.9653 20.0354 19.9653 20.1777C19.9653 20.3201 20.0215 20.4567 20.1215 20.558C20.2216 20.6593 20.3575 20.717 20.4999 20.7188C20.6423 20.717 20.7782 20.6593 20.8783 20.558C20.9783 20.4567 21.0344 20.3201 21.0344 20.1777C21.0344 20.0354 20.9783 19.8987 20.8783 19.7974C20.7782 19.6962 20.6422 19.6384 20.4999 19.6367Z" fill="#777777"/>
<path d="M24.4062 26.3672V24.5859C24.4057 24.4991 24.371 24.4159 24.3096 24.3545C24.2481 24.2931 24.165 24.2583 24.0781 24.2578H16.9219C16.835 24.2583 16.7519 24.2931 16.6904 24.3545C16.629 24.4159 16.5943 24.4991 16.5938 24.5859V26.3672C16.5943 26.4541 16.629 26.5372 16.6904 26.5986C16.7519 26.6601 16.835 26.6948 16.9219 26.6953H24.0781C24.165 26.6948 24.2481 26.6601 24.3096 26.5986C24.371 26.5372 24.4057 26.4541 24.4062 26.3672ZM18.2852 25.8672H17.6133C17.5097 25.8672 17.4103 25.826 17.3371 25.7528C17.2638 25.6795 17.2227 25.5802 17.2227 25.4766C17.2227 25.373 17.2638 25.2736 17.3371 25.2003C17.4103 25.1271 17.5097 25.0859 17.6133 25.0859H18.2852C18.3878 25.0875 18.4856 25.1293 18.5576 25.2024C18.6297 25.2755 18.67 25.374 18.67 25.4766C18.67 25.5792 18.6297 25.6777 18.5576 25.7508C18.4856 25.8238 18.3878 25.8657 18.2852 25.8672ZM20.8359 25.8672H20.1641C20.0605 25.8672 19.9611 25.826 19.8878 25.7528C19.8146 25.6795 19.7734 25.5802 19.7734 25.4766C19.7734 25.373 19.8146 25.2736 19.8878 25.2003C19.9611 25.1271 20.0605 25.0859 20.1641 25.0859H20.8359C20.9385 25.0875 21.0364 25.1293 21.1084 25.2024C21.1804 25.2755 21.2208 25.374 21.2208 25.4766C21.2208 25.5792 21.1804 25.6777 21.1084 25.7508C21.0364 25.8238 20.9385 25.8657 20.8359 25.8672ZM23.3867 25.8672H22.7148C22.6122 25.8657 22.5144 25.8238 22.4424 25.7508C22.3703 25.6777 22.33 25.5792 22.33 25.4766C22.33 25.374 22.3703 25.2755 22.4424 25.2024C22.5144 25.1293 22.6122 25.0875 22.7148 25.0859H23.3867C23.4894 25.0873 23.5874 25.1291 23.6596 25.2022C23.7317 25.2753 23.7721 25.3739 23.7721 25.4766C23.7721 25.5793 23.7317 25.6778 23.6596 25.7509C23.5874 25.824 23.4894 25.8658 23.3867 25.8672Z" fill="#777777"/>
</svg>
