<svg width="62" height="59" viewBox="0 0 62 59" fill="none" xmlns="http://www.w3.org/2000/svg">
<ellipse cx="30.8904" cy="29.3836" rx="30.8904" ry="29.3836" fill="#F4F4F4"/>
<path d="M30.8903 12.9014C26.5207 12.9062 22.3315 14.6441 19.2417 17.7339C16.1519 20.8237 14.414 25.0129 14.4092 29.3825C15.3139 51.2472 46.4702 51.2408 47.3715 29.3824C47.3667 25.0128 45.6287 20.8236 42.539 17.7338C39.4492 14.6441 35.2599 12.9062 30.8903 12.9014ZM23.827 39.7304V37.0463C23.8277 36.6031 24.004 36.1784 24.3174 35.865C24.6307 35.5517 25.0555 35.3753 25.4986 35.3746H36.282C36.7252 35.3753 37.15 35.5517 37.4633 35.865C37.7767 36.1784 37.953 36.6031 37.9537 37.0463V39.7304C37.953 40.1735 37.7766 40.5983 37.4633 40.9116C37.15 41.225 36.7252 41.4013 36.282 41.402H25.4986C25.0555 41.4013 24.6307 41.225 24.3174 40.9116C24.004 40.5983 23.8277 40.1735 23.827 39.7304ZM32.8857 30.4008C32.8877 30.7999 32.7699 31.1904 32.5476 31.5218C32.3253 31.8533 32.0087 32.1105 31.6388 32.2601C31.2689 32.4098 30.8625 32.4452 30.4723 32.3616C30.0821 32.278 29.7259 32.0793 29.4498 31.7911C29.1736 31.503 28.9902 31.1387 28.9232 30.7453C28.8562 30.3519 28.9088 29.9474 29.074 29.5842C29.2392 29.2209 29.5096 28.9156 29.8502 28.7075C30.1908 28.4995 30.5859 28.3984 30.9845 28.4172L33.6804 21.2773C33.7372 21.1333 33.8485 21.0175 33.9901 20.9549C34.1317 20.8924 34.2923 20.8881 34.437 20.9431C34.5817 20.998 34.699 21.1078 34.7634 21.2486C34.8278 21.3894 34.8342 21.5498 34.7811 21.6953L32.0911 28.8116C32.3376 28.9968 32.5377 29.2368 32.6756 29.5126C32.8136 29.7884 32.8855 30.0925 32.8857 30.4008ZM42.0917 29.9711C41.937 29.969 41.7894 29.906 41.6808 29.7958C41.5722 29.6857 41.5113 29.5372 41.5113 29.3825C41.5113 29.2278 41.5722 29.0794 41.6808 28.9692C41.7894 28.8591 41.937 28.7961 42.0917 28.7939H43.2336C43.1549 27.0239 42.6908 25.2923 41.8739 23.7201L40.885 24.291C40.8182 24.3303 40.7443 24.3559 40.6675 24.3665C40.5908 24.3771 40.5127 24.3724 40.4377 24.3527C40.3628 24.333 40.2925 24.2987 40.2309 24.2518C40.1692 24.2048 40.1175 24.1461 40.0786 24.0791C40.0016 23.9431 39.9813 23.7822 40.0221 23.6313C40.0628 23.4803 40.1614 23.3515 40.2964 23.2727L41.2794 22.7018C40.3256 21.2124 39.0605 19.9473 37.5711 18.9935L37.0001 19.9765C36.9618 20.0438 36.9104 20.1029 36.8491 20.1504C36.7878 20.1978 36.7177 20.2327 36.6429 20.2529C36.568 20.2732 36.4899 20.2784 36.413 20.2684C36.3362 20.2583 36.262 20.2332 36.1949 20.1944C36.1278 20.1556 36.069 20.1039 36.0219 20.0423C35.9749 19.9807 35.9404 19.9104 35.9206 19.8355C35.9008 19.7605 35.8961 19.6824 35.9066 19.6056C35.9171 19.5287 35.9426 19.4548 35.9818 19.3879L36.5528 18.399C34.9806 17.5821 33.249 17.118 31.479 17.0393V18.1812C31.4767 18.3358 31.4136 18.4833 31.3035 18.5918C31.1934 18.7003 31.045 18.7612 30.8903 18.7612C30.7357 18.7612 30.5873 18.7003 30.4772 18.5918C30.367 18.4833 30.304 18.3358 30.3017 18.1812V17.0393C28.5317 17.118 26.8001 17.5821 25.2279 18.399L25.7988 19.3879C25.8375 19.4547 25.8626 19.5286 25.8727 19.6051C25.8828 19.6817 25.8778 19.7595 25.8578 19.8341C25.8379 19.9087 25.8034 19.9787 25.7564 20.04C25.7095 20.1013 25.6509 20.1527 25.584 20.1913C25.5171 20.23 25.4433 20.2551 25.3668 20.2652C25.2902 20.2753 25.2124 20.2703 25.1378 20.2503C25.0632 20.2304 24.9932 20.1959 24.9319 20.1489C24.8706 20.102 24.8192 20.0434 24.7805 19.9765L24.2096 18.9935C22.7202 19.9473 21.4551 21.2124 20.5013 22.7018L21.4843 23.2727C21.5944 23.3391 21.6799 23.4395 21.7279 23.5587C21.776 23.6779 21.784 23.8095 21.7508 23.9337C21.7176 24.0579 21.645 24.1679 21.5438 24.2472C21.4427 24.3265 21.3185 24.3708 21.19 24.3734C20.8997 24.3811 20.1562 23.8295 19.9068 23.7201C19.0899 25.2923 18.6258 27.0239 18.5471 28.7939H19.689C19.7663 28.7939 19.8429 28.8091 19.9143 28.8387C19.9857 28.8683 20.0506 28.9117 20.1053 28.9663C20.1599 29.021 20.2033 29.0859 20.2328 29.1573C20.2624 29.2287 20.2777 29.3052 20.2777 29.3825C20.2777 29.4598 20.2624 29.5364 20.2328 29.6078C20.2033 29.6792 20.1599 29.7441 20.1053 29.7987C20.0506 29.8534 19.9857 29.8968 19.9143 29.9263C19.8429 29.9559 19.7663 29.9711 19.689 29.9711H18.5471C18.6335 31.8536 19.1532 33.6906 20.0658 35.3393C20.1028 35.4069 20.126 35.4811 20.1342 35.5577C20.1424 35.6343 20.1353 35.7118 20.1135 35.7856C20.0916 35.8595 20.0553 35.9283 20.0067 35.9881C19.9581 36.0478 19.8981 36.0974 19.8303 36.1339C19.7633 36.1721 19.6893 36.1965 19.6128 36.2056C19.5362 36.2147 19.4586 36.2083 19.3845 36.1869C19.3104 36.1655 19.2414 36.1295 19.1815 36.081C19.1216 36.0324 19.072 35.9724 19.0357 35.9044C17.3198 32.7968 16.8957 29.1388 17.855 25.7211C18.8144 22.3034 21.0801 19.4004 24.1625 17.6397C36.081 10.9885 49.2037 23.8266 42.745 35.9044C42.6684 36.0379 42.5425 36.1359 42.3944 36.1776C42.2462 36.2192 42.0877 36.2011 41.9528 36.1271C41.8179 36.053 41.7174 35.9291 41.6729 35.7817C41.6284 35.6344 41.6435 35.4756 41.7149 35.3393C42.6275 33.6906 43.1472 31.8535 43.2336 29.9711H42.0917Z" fill="#777777"/>
<path d="M30.8904 29.5884C30.6759 29.591 30.4711 29.678 30.3203 29.8306C30.1695 29.9832 30.085 30.1891 30.085 30.4036C30.085 30.6182 30.1695 30.824 30.3203 30.9766C30.4711 31.1292 30.676 31.2163 30.8905 31.2188C31.105 31.2163 31.3098 31.1292 31.4606 30.9766C31.6114 30.824 31.6959 30.6181 31.6959 30.4036C31.6959 30.1891 31.6114 29.9832 31.4606 29.8306C31.3098 29.678 31.105 29.591 30.8904 29.5884Z" fill="#777777"/>
<path d="M36.7767 39.7303V37.0462C36.7759 36.9153 36.7235 36.79 36.631 36.6974C36.5384 36.6049 36.4131 36.5525 36.2822 36.5518H25.4988C25.3679 36.5525 25.2426 36.6049 25.1501 36.6974C25.0575 36.79 25.0052 36.9153 25.0044 37.0462V39.7303C25.0052 39.8612 25.0575 39.9865 25.1501 40.079C25.2426 40.1716 25.3679 40.2239 25.4988 40.2247H36.2822C36.4131 40.2239 36.5384 40.1716 36.631 40.079C36.7235 39.9865 36.7759 39.8612 36.7767 39.7303ZM27.5531 38.9768H26.5407C26.3846 38.9768 26.2348 38.9148 26.1245 38.8044C26.0141 38.6941 25.9521 38.5443 25.9521 38.3882C25.9521 38.2321 26.0141 38.0824 26.1245 37.972C26.2348 37.8616 26.3846 37.7996 26.5407 37.7996H27.5531C27.7077 37.8019 27.8552 37.8649 27.9637 37.9751C28.0722 38.0852 28.133 38.2336 28.133 38.3882C28.133 38.5428 28.0722 38.6913 27.9637 38.8014C27.8552 38.9115 27.7077 38.9745 27.5531 38.9768ZM31.3967 38.9768H30.3843C30.2282 38.9768 30.0785 38.9148 29.9681 38.8044C29.8577 38.6941 29.7957 38.5443 29.7957 38.3882C29.7957 38.2321 29.8577 38.0824 29.9681 37.972C30.0785 37.8616 30.2282 37.7996 30.3843 37.7996H31.3967C31.5513 37.8019 31.6988 37.8649 31.8073 37.9751C31.9158 38.0852 31.9767 38.2336 31.9767 38.3882C31.9767 38.5428 31.9158 38.6913 31.8073 38.8014C31.6988 38.9115 31.5513 38.9745 31.3967 38.9768ZM35.2404 38.9768H34.228C34.0734 38.9745 33.9259 38.9115 33.8174 38.8014C33.7088 38.6913 33.648 38.5428 33.648 38.3882C33.648 38.2336 33.7088 38.0852 33.8174 37.9751C33.9259 37.8649 34.0734 37.8019 34.228 37.7996H35.2404C35.3951 37.8017 35.5428 37.8646 35.6515 37.9748C35.7602 38.0849 35.8211 38.2335 35.8211 38.3882C35.8211 38.543 35.7602 38.6915 35.6515 38.8017C35.5428 38.9118 35.3951 38.9748 35.2404 38.9768Z" fill="#777777"/>
</svg>
