<svg width="62" height="59" viewBox="0 0 62 59" fill="none" xmlns="http://www.w3.org/2000/svg">
<ellipse cx="30.8904" cy="29.3836" rx="30.8904" ry="29.3836" fill="#F4F4F4"/>
<path d="M25.2935 42.5049C26.554 42.206 27.3335 40.9419 27.0346 39.6814C26.7357 38.4209 25.4715 37.6413 24.211 37.9402C22.9505 38.2391 22.171 39.5033 22.4699 40.7638C22.7688 42.0243 24.033 42.8038 25.2935 42.5049Z" fill="#777777"/>
<path d="M24.748 37.3297C25.2667 37.3207 25.7778 37.4552 26.2249 37.7182C26.672 37.9812 27.0379 38.3626 27.2821 38.8203C27.672 38.4983 27.9895 38.0976 28.2139 37.6445C28.4383 37.1913 28.5645 36.6959 28.5843 36.1906C28.6402 35.0194 28.3359 33.8592 27.7124 32.8662C27.0425 31.806 26.444 30.7022 25.9208 29.5624C25.0274 27.6229 24.3838 25.5778 24.0055 23.4761C23.938 23.1049 23.8649 22.7477 23.7861 22.4102C23.6531 21.8241 23.3248 21.3006 22.8552 20.9255C22.3856 20.5504 21.8025 20.346 21.2015 20.3458C21.0805 20.3458 20.9708 20.3571 20.8527 20.3683L20.8077 20.3711C20.6914 20.3893 20.5762 20.414 20.4626 20.4451V19.2968C21.084 19.2877 21.6815 19.0557 22.1462 18.6429C22.6108 18.2302 22.9116 17.6642 22.9939 17.0482L23.4065 13.9249C23.4959 13.2447 23.3119 12.5567 22.8949 12.0119C22.4778 11.4672 21.8618 11.11 21.1818 11.0187C21.0721 11.0047 18.794 10.7302 18.2736 13.2462L17.8602 16.3718C17.7756 17.0194 17.9388 17.6751 18.317 18.2076C18.6953 18.74 19.2607 19.11 19.9001 19.2433V20.6572C19.2326 20.9778 18.7031 21.5284 18.4087 22.2078C18.1142 22.8873 18.0746 23.6501 18.297 24.3565L22.5861 38.2952C22.8568 37.9895 23.1898 37.7452 23.5627 37.5787C23.9355 37.4122 24.3397 37.3273 24.748 37.3297ZM44.1036 38.9975C44.0533 38.5692 43.9164 38.1556 43.7012 37.7819C43.4861 37.4081 43.1972 37.082 42.8521 36.8234C42.5105 36.558 42.1193 36.3636 41.7016 36.2515C41.2838 36.1395 40.8478 36.1121 40.4193 36.1709L28.784 37.7234C28.5132 38.37 28.0754 38.933 27.5155 39.3547C27.6091 39.6397 27.6566 39.9378 27.6561 40.2378C27.6553 41.0089 27.3487 41.7482 26.8035 42.2935C26.2583 42.8389 25.5191 43.1457 24.748 43.1468C24.6524 43.1468 24.5596 43.1411 24.4668 43.1327V44.3252H42.0055C42.0055 44.3252 44.5792 43.2278 44.1036 38.9975ZM24.4668 44.8869V45.2778C24.4672 45.7334 24.6484 46.1702 24.9706 46.4924C25.2928 46.8146 25.7296 46.9958 26.1852 46.9962H40.4868C40.9419 46.9952 41.3781 46.8137 41.6997 46.4916C42.0213 46.1695 42.2021 45.733 42.2024 45.2778V44.87L42.1771 44.8869H24.4668Z" fill="#777777"/>
</svg>
