<svg width="491" height="261" viewBox="0 0 491 261" fill="none" xmlns="http://www.w3.org/2000/svg">
<path d="M427.93 0.909912L398.01 61.2599L406.94 61.5999L381.6 109.55H394.91L374.14 152.16H490.24L464.67 109.55L476.92 109.02L452.43 61.0899L461.48 60.5599L427.93 0.909912Z" fill="#F5F5F5"/>
<path d="M432.989 70.9199C433.159 70.9199 432.929 107.36 432.459 152.29C431.999 197.24 431.259 238.73 431.259 238.56C431.199 228.95 431.379 197.23 431.839 152.28C432.299 107.35 432.819 70.9099 432.989 70.9199Z" fill="#E0E0E0"/>
<path d="M447.209 86.43C447.349 86.53 444.359 90.63 440.549 95.58C436.739 100.53 433.529 104.45 433.399 104.35C433.259 104.25 436.249 100.15 440.059 95.2C443.879 90.25 447.079 86.32 447.209 86.43Z" fill="#E0E0E0"/>
<path d="M432.699 103.06C432.589 103.2 429.649 101.07 426.119 98.32C422.589 95.57 419.809 93.23 419.919 93.09C420.029 92.95 422.969 95.08 426.499 97.83C430.029 100.59 432.809 102.93 432.699 103.06Z" fill="#E0E0E0"/>
<path d="M431.91 132.66C431.85 132.72 431.02 132.05 429.71 130.94C428.39 129.83 426.58 128.3 424.55 126.64C422.52 124.98 420.65 123.52 419.3 122.45C417.95 121.38 417.12 120.71 417.17 120.64C417.22 120.57 418.14 121.12 419.56 122.1C420.98 123.08 422.9 124.5 424.94 126.16C426.98 127.82 428.76 129.42 430 130.61C431.25 131.81 431.97 132.6 431.91 132.66Z" fill="#E0E0E0"/>
<path d="M447.229 114.36C447.359 114.47 444.099 118.76 439.929 123.94C435.759 129.12 432.279 133.24 432.149 133.13C432.019 133.02 435.279 128.73 439.449 123.55C443.609 118.37 447.099 114.26 447.229 114.36Z" fill="#E0E0E0"/>
<path d="M88.1291 0.909912L60.8691 55.8899L69.0091 56.1999L45.9091 99.8899H58.0391L39.1191 138.71H144.889L121.609 99.8899L132.759 99.4099L110.449 55.7399L118.689 55.2499L88.1291 0.909912Z" fill="#F5F5F5"/>
<path d="M92.7296 64.6899C92.8896 64.6899 92.6696 97.8899 92.2496 138.83C91.8296 179.78 91.3596 226.19 91.2096 226.19C91.0496 226.19 91.2696 179.78 91.6896 138.82C92.1096 97.8799 92.5796 64.6899 92.7296 64.6899Z" fill="#E0E0E0"/>
<path d="M105.699 78.8299C105.819 78.9299 103.109 82.6599 99.6293 87.1599C96.1493 91.6699 93.2393 95.2399 93.1093 95.1499C92.9893 95.0499 95.6993 91.3199 99.1793 86.8199C102.659 82.3099 105.569 78.7299 105.699 78.8299Z" fill="#E0E0E0"/>
<path d="M92.479 93.9798C92.379 94.0998 89.699 92.1698 86.479 89.6598C83.259 87.1498 80.729 85.0198 80.829 84.8998C80.929 84.7798 83.609 86.7098 86.829 89.2198C90.039 91.7198 92.569 93.8598 92.479 93.9798Z" fill="#E0E0E0"/>
<path d="M91.749 120.95C91.699 121.01 90.939 120.39 89.739 119.38C88.539 118.37 86.889 116.97 85.039 115.46C83.189 113.95 81.489 112.61 80.249 111.64C79.019 110.67 78.259 110.06 78.309 109.99C78.349 109.93 79.189 110.43 80.489 111.32C81.789 112.21 83.529 113.5 85.399 115.02C87.259 116.54 88.879 117.99 90.009 119.08C91.149 120.17 91.809 120.89 91.749 120.95Z" fill="#E0E0E0"/>
<path d="M105.709 104.28C105.829 104.38 102.849 108.29 99.0593 113.01C95.2593 117.73 92.0893 121.48 91.9693 121.38C91.8493 121.28 94.8293 117.38 98.6193 112.65C102.419 107.93 105.589 104.18 105.709 104.28Z" fill="#E0E0E0"/>
<path d="M41.1992 74.48L20.1992 116.83L26.4692 117.07L8.68922 150.72H18.0292L3.44922 180.62H80.2392L66.9792 150.72L75.5792 150.35L58.3892 116.71L64.7392 116.34L41.1992 74.48Z" fill="#EBEBEB"/>
<path d="M44.7496 123.61C44.8696 123.61 44.7096 149.18 44.3796 180.71C44.0596 212.25 43.6996 237.81 43.5796 237.81C43.4596 237.81 43.6296 212.25 43.9496 180.7C44.2696 149.17 44.6296 123.61 44.7496 123.61Z" fill="#E0E0E0"/>
<path d="M54.7296 134.49C54.8296 134.56 52.7296 137.44 50.0596 140.91C47.3796 144.38 45.1396 147.14 45.0396 147.06C44.9396 146.99 47.0396 144.11 49.7096 140.64C52.3896 137.18 54.6396 134.42 54.7296 134.49Z" fill="#E0E0E0"/>
<path d="M44.5495 146.16C44.4795 146.25 42.4095 144.77 39.9295 142.84C37.4495 140.91 35.4995 139.27 35.5795 139.17C35.6495 139.08 37.7195 140.56 40.1995 142.49C42.6795 144.43 44.6195 146.07 44.5495 146.16Z" fill="#E0E0E0"/>
<path d="M43.9896 166.94C43.9496 166.99 43.3696 166.51 42.4396 165.73C41.5196 164.95 40.2396 163.88 38.8196 162.71C37.3896 161.55 36.0796 160.52 35.1296 159.77C34.1796 159.02 33.5996 158.55 33.6396 158.5C33.6696 158.45 34.3196 158.84 35.3196 159.52C36.3196 160.21 37.6596 161.2 39.0996 162.37C40.5296 163.54 41.7796 164.66 42.6496 165.5C43.5296 166.34 44.0296 166.9 43.9896 166.94Z" fill="#E0E0E0"/>
<path d="M54.7388 154.1C54.8288 154.18 52.5388 157.18 49.6188 160.82C46.6988 164.46 44.2488 167.34 44.1588 167.27C44.0688 167.19 46.3588 164.19 49.2788 160.55C52.2088 156.91 54.6488 154.02 54.7388 154.1Z" fill="#E0E0E0"/>
<path d="M405.599 238.76C377.939 259.48 340.829 262.43 306.399 259.53C271.959 256.63 237.739 248.71 203.239 250.75C183.699 251.91 164.409 256.27 144.839 256.61C125.269 256.95 104.509 252.66 90.3594 239.13L405.599 238.76Z" fill="#F5F5F5"/>
<path d="M145.27 40.4999H238.72C238.72 40.4999 230.46 25.4599 206.4 27.6499C183.43 29.7399 182.26 20.2499 170.58 19.0799C158.9 17.9199 149.16 26.8699 145.27 40.4999Z" fill="#EBEBEB"/>
<path d="M228.489 66.2199H279.449C279.449 66.2199 274.939 58.0199 261.829 59.2099C249.299 60.3499 248.669 55.1799 242.299 54.5399C235.919 53.9099 230.609 58.7899 228.489 66.2199Z" fill="#F5F5F5"/>
<path d="M281.529 18.51H332.489C332.489 18.51 327.979 10.31 314.869 11.5C302.339 12.64 301.709 7.46998 295.339 6.82998C288.959 6.19998 283.649 11.08 281.529 18.51Z" fill="#FAFAFA"/>
<path d="M31.1497 238.32C31.1497 238.33 24.6197 238.33 16.5597 238.33C8.49973 238.33 1.96973 238.33 1.96973 238.32C1.96973 238.31 8.49973 238.31 16.5597 238.31C24.6097 238.31 31.1497 238.32 31.1497 238.32Z" fill="#242850"/>
<path d="M16.5595 240.04L3.11953 240.03C2.90953 240.03 2.69953 240.03 2.49953 240.02C2.22953 240.02 2.06953 240.02 2.01953 240.02V240C1.06953 239.91 0.269531 239.56 0.269531 238.32C0.269531 237.08 1.06953 236.74 2.01953 236.64V236.61C2.06953 236.61 2.22953 236.61 2.48953 236.61C2.69953 236.6 2.90953 236.6 3.10953 236.6L16.5495 236.59L29.9995 236.61C30.2095 236.61 30.4195 236.61 30.6195 236.62C30.8895 236.62 31.0495 236.62 31.0895 236.62V236.65C32.0395 236.74 32.8395 237.08 32.8395 238.33C32.8395 239.57 32.0395 239.91 31.0895 240.01V240.04C31.0495 240.04 30.8795 240.04 30.6095 240.04C30.3995 240.05 30.1895 240.05 29.9895 240.05L16.5595 240.04Z" fill="#242850"/>
<path d="M84.3696 238.32C84.3696 238.33 74.8496 238.34 63.1096 238.34C51.3696 238.34 41.8496 238.33 41.8496 238.32C41.8496 238.31 51.3696 238.3 63.1096 238.3C74.8496 238.31 84.3696 238.32 84.3696 238.32Z" fill="#242850"/>
<path d="M63.1099 240.05C57.2399 240.05 51.9199 240.05 48.0699 240.04H43.5099C43.1599 240.04 42.8299 240.04 42.5299 240.03C42.1599 240.03 41.9499 240.03 41.8899 240.03V239.99C40.7899 239.88 40.1299 239.52 40.1299 238.32C40.1299 237.12 40.7899 236.76 41.8899 236.65V236.61C41.9399 236.61 42.1599 236.61 42.5299 236.61C42.8299 236.6 43.1599 236.6 43.5099 236.6L63.0999 236.59L82.6899 236.6C83.0399 236.6 83.3699 236.6 83.6699 236.61C84.0299 236.61 84.2499 236.61 84.3099 236.61V236.65C85.4099 236.76 86.0699 237.12 86.0699 238.32C86.0699 239.52 85.4099 239.88 84.3099 239.99V240.03C84.2599 240.03 84.0399 240.03 83.6699 240.03C83.3699 240.04 83.0399 240.04 82.6899 240.04H78.1299C74.2899 240.05 68.9799 240.05 63.1099 240.05Z" fill="#242850"/>
<path d="M487.9 238.32C487.9 238.4 402.34 238.47 296.82 238.47C191.26 238.47 105.72 238.4 105.72 238.32C105.72 238.24 191.26 238.17 296.82 238.17C402.34 238.18 487.9 238.24 487.9 238.32Z" fill="#242850"/>
<path d="M296.82 240.18C244.04 240.18 196.26 240.16 161.68 240.14C144.39 240.13 130.4 240.11 120.73 240.09C115.89 240.08 112.14 240.07 109.59 240.06L106.69 240.05C106.46 240.05 106.21 240.05 105.95 240.03C105.89 240.03 105.85 240.03 105.82 240.03V240.02C104.92 239.93 104.01 239.61 104.01 238.33C104.01 237.05 104.92 236.73 105.82 236.64V236.63C105.85 236.63 105.89 236.63 105.95 236.63C106.21 236.61 106.46 236.61 106.69 236.61L109.59 236.6C112.14 236.59 115.89 236.58 120.73 236.57C130.4 236.55 144.39 236.54 161.68 236.52C196.26 236.49 244.04 236.48 296.82 236.48C349.58 236.48 397.35 236.5 431.93 236.52C449.22 236.53 463.21 236.55 472.88 236.57C477.72 236.58 481.47 236.59 484.02 236.6L486.92 236.61C487.15 236.61 487.4 236.61 487.66 236.63C487.72 236.63 487.76 236.63 487.79 236.63V236.64C488.69 236.73 489.6 237.05 489.6 238.33C489.6 239.61 488.69 239.93 487.79 240.02V240.03C487.76 240.03 487.72 240.03 487.66 240.03C487.4 240.05 487.15 240.05 486.92 240.05L484.02 240.06C481.47 240.07 477.72 240.08 472.88 240.09C463.21 240.11 449.22 240.12 431.93 240.14C397.35 240.16 349.58 240.18 296.82 240.18Z" fill="#242850"/>
<path d="M455.249 168.55C462.129 176.03 462.599 187.53 456.089 195.33C453.289 198.68 449.729 201.43 445.599 203.29L410.819 218.96L386.249 222.76L64.7492 220.72L44.6092 216.78C34.8992 214.88 27.9392 206.3 28.0792 196.4L28.2792 182.4C28.3092 180.25 29.7192 178.36 31.7792 177.73L33.2092 177.29C33.2092 177.29 34.3992 163.57 42.6792 160.46C72.8492 147.46 92.8292 143.28 143.339 141.17L185.999 115.67C185.999 115.67 203.219 104.66 219.269 103.22C235.319 101.78 271.629 101.76 288.279 102.72C307.819 103.84 332.619 112.74 346.439 119.59C357.269 124.96 383.339 138.23 383.339 138.23L398.079 140.7C400.299 140.8 441.019 143.29 445.699 144C448.449 144.42 451.939 146.49 453.109 150.36C454.279 154.23 455.259 168.42 455.259 168.42" fill="#FF542B"/>
<path d="M330.769 120.34C323.819 116.87 305.179 112.07 294.749 110.12C284.329 108.17 263.139 107.9 254.669 108.11C246.199 108.33 222.679 108.73 210.279 112.25C203.899 114.06 193.649 119.37 187.609 123.81C185.509 125.35 176.399 132.49 174.359 134.11L158.579 148.84L352.489 142.72C352.489 142.72 353.609 135.96 350.119 132.07C346.639 128.19 330.769 120.34 330.769 120.34Z" fill="#263238"/>
<path d="M43.1293 176.46L33.3193 176.32C33.6993 173.68 34.9993 166.64 39.1893 162.7L52.1793 162.89C54.5493 162.92 55.9793 165.53 54.7393 167.54L52.3793 171.38C50.3993 174.59 46.8893 176.52 43.1293 176.46Z" fill="#FAFAFA"/>
<path d="M44.3195 175.87C45.3395 171.55 46.6195 165.87 50.2695 162.86L52.1795 162.89C54.5495 162.92 55.9795 165.53 54.7395 167.54L52.3795 171.38C50.5995 174.28 47.5495 176.12 44.1895 176.4C44.2295 176.23 44.2795 176.06 44.3195 175.87Z" fill="#E0E0E0"/>
<g opacity="0.7">
<path d="M139.499 221.31C140.509 216.39 140.779 211.22 140.169 205.97C137.629 184.19 123.369 168.52 101.829 168.21C83.0789 167.94 67.5989 179.65 64.4289 201.35C63.4789 207.84 63.7489 214.49 65.0789 220.81L139.499 221.31Z" fill="black"/>
</g>
<g opacity="0.7">
<path d="M410.799 219.04C410.769 218.24 410.699 217.42 410.689 216.57C410.309 189.09 391.869 170.05 369.939 169.73C349.909 169.44 333.369 185.51 333.079 205.54C332.989 211.65 332.699 217.41 333.419 222.49L386.229 222.85L410.799 219.04Z" fill="black"/>
</g>
<path d="M337.759 205.61C337.509 223.09 351.479 237.47 368.959 237.72C386.439 237.97 400.819 224 401.069 206.52C401.319 189.04 387.349 174.66 369.869 174.41C352.389 174.16 338.009 188.13 337.759 205.61Z" fill="#263238"/>
<path d="M337.769 205.53C337.769 205.56 337.759 205.58 337.759 205.61C337.509 223.09 351.479 237.47 368.959 237.72C386.439 237.97 400.819 224 401.069 206.52C401.069 206.49 401.069 206.47 401.069 206.44L337.769 205.53Z" fill="#263238"/>
<path d="M347.189 205.75C347.009 218.03 356.819 228.12 369.099 228.3C381.379 228.48 391.469 218.67 391.649 206.39C391.829 194.11 382.019 184.02 369.739 183.84C357.459 183.67 347.369 193.47 347.189 205.75Z" fill="#FAFAFA"/>
<path d="M369.739 183.84C357.459 183.66 347.369 193.47 347.189 205.75L391.639 206.39C391.819 194.11 382.009 184.02 369.739 183.84Z" fill="#E0E0E0"/>
<path d="M355.879 205.87C355.769 213.35 361.749 219.5 369.219 219.6C376.699 219.71 382.849 213.73 382.949 206.26C383.059 198.78 377.079 192.63 369.609 192.53C362.139 192.42 355.989 198.4 355.879 205.87Z" fill="#263238"/>
<path d="M103.888 238.522C121.356 237.737 134.88 222.94 134.095 205.472C133.31 188.004 118.513 174.48 101.045 175.265C83.5775 176.05 70.0534 190.847 70.8385 208.315C71.6236 225.783 86.4206 239.307 103.888 238.522Z" fill="#263238"/>
<path d="M70.8092 206.35C70.8092 206.38 70.7992 206.4 70.7992 206.43C70.5492 223.91 84.5192 238.29 101.999 238.54C119.479 238.79 133.859 224.82 134.109 207.34C134.109 207.31 134.109 207.29 134.109 207.26L70.8092 206.35Z" fill="#263238"/>
<path d="M80.2388 206.57C80.0588 218.85 89.8688 228.94 102.149 229.12C114.429 229.3 124.519 219.49 124.699 207.21C124.879 194.93 115.069 184.84 102.789 184.66C90.5088 184.48 80.4188 194.29 80.2388 206.57Z" fill="#FAFAFA"/>
<path d="M102.789 184.66C90.5093 184.48 80.4193 194.29 80.2393 206.57L124.689 207.21C124.869 194.93 115.059 184.84 102.789 184.66Z" fill="#E0E0E0"/>
<path d="M88.9292 206.69C88.8192 214.17 94.7992 220.32 102.269 220.42C109.749 220.53 115.899 214.55 115.999 207.08C116.109 199.6 110.129 193.45 102.659 193.35C95.1792 193.24 89.0292 199.21 88.9292 206.69Z" fill="#263238"/>
<g opacity="0.4">
<path d="M41.2188 199.63C41.1688 203.18 39.3688 206.03 37.2088 206C35.0488 205.97 33.3388 203.07 33.3888 199.52C33.4388 195.97 35.2388 193.12 37.3988 193.15C39.5588 193.18 41.2688 196.08 41.2188 199.63Z" fill="black"/>
</g>
<path d="M455.249 168.55C455.249 168.57 455.039 168.58 454.639 168.6C454.189 168.62 453.609 168.64 452.889 168.66C451.369 168.7 449.169 168.74 446.449 168.86C443.729 168.95 440.499 169.12 436.919 169.41C433.349 169.73 429.409 170.15 425.389 171.11C423.389 171.61 421.459 172.22 419.719 173.07C417.969 173.91 416.449 175.01 415.049 176.14C412.219 178.34 410.079 180.78 408.139 182.7C406.219 184.64 404.479 186.03 403.179 186.83C402.529 187.23 401.999 187.51 401.629 187.67C401.259 187.84 401.069 187.92 401.059 187.9C401.039 187.85 401.809 187.52 403.079 186.68C404.339 185.84 406.029 184.43 407.909 182.48C409.809 180.55 411.939 178.06 414.789 175.82C416.179 174.68 417.739 173.54 419.519 172.68C421.299 171.81 423.259 171.19 425.279 170.68C429.339 169.71 433.299 169.31 436.879 169C440.469 168.73 443.709 168.6 446.429 168.55C449.149 168.48 451.349 168.48 452.879 168.5C453.599 168.51 454.189 168.52 454.629 168.52C455.039 168.52 455.249 168.53 455.249 168.55Z" fill="#263238"/>
<g opacity="0.5">
<path d="M409.779 219.61C409.779 219.61 409.909 219.52 410.159 219.36C410.409 219.2 410.779 218.95 411.229 218.57C412.109 217.81 413.299 216.5 414.159 214.45C415.039 212.41 415.449 209.66 415.179 206.52C414.909 203.38 414.189 199.83 413.079 196.01C411.949 192.2 410.329 188.13 407.979 184.08C405.629 180.05 402.529 176.06 398.569 172.61C394.619 169.17 389.809 166.25 384.339 164.61C378.879 162.95 372.869 162.48 366.849 163.12C360.819 163.75 355.039 165.32 349.789 167.56C344.549 169.81 339.839 172.89 336.289 176.76C332.689 180.59 330.259 185.05 328.569 189.39C326.879 193.75 325.909 198.02 325.269 201.95C324.959 203.92 324.729 205.8 324.569 207.58C324.389 209.36 324.289 211.05 324.359 212.63C324.459 215.77 325.489 218.46 327.099 220C328.659 221.6 330.419 222.13 331.559 222.21C332.729 222.26 333.319 222.01 333.329 222.05C333.329 222.05 333.179 222.1 332.889 222.18C332.599 222.25 332.149 222.31 331.559 222.31C330.399 222.26 328.589 221.75 326.979 220.14C325.319 218.59 324.239 215.84 324.119 212.66C324.039 211.07 324.129 209.37 324.299 207.58C324.449 205.79 324.679 203.9 324.969 201.92C325.589 197.98 326.539 193.68 328.239 189.28C329.089 187.09 330.119 184.87 331.389 182.7C332.669 180.54 334.199 178.44 335.999 176.49C339.589 172.57 344.339 169.44 349.629 167.17C354.929 164.91 360.739 163.32 366.819 162.69C372.889 162.04 378.959 162.53 384.479 164.21C390.019 165.88 394.879 168.84 398.859 172.32C402.849 175.81 405.969 179.85 408.329 183.92C410.679 188 412.289 192.11 413.409 195.95C414.499 199.79 415.199 203.36 415.449 206.53C415.689 209.7 415.259 212.5 414.339 214.55C413.449 216.62 412.219 217.94 411.309 218.68C410.359 219.38 409.779 219.61 409.779 219.61Z" fill="white"/>
</g>
<path d="M65.0895 201.33C65.0595 201.35 64.7195 200.9 64.0695 200.12C63.4195 199.34 62.3995 198.27 60.9995 197.13C58.2195 194.82 53.6795 192.43 48.2495 191.3C42.8195 190.18 37.7495 190.27 34.1195 190.39C32.2995 190.46 30.8295 190.55 29.8095 190.6C28.7895 190.65 28.2295 190.67 28.2295 190.64C28.2295 190.62 28.3695 190.6 28.6295 190.56C28.9495 190.52 29.3295 190.48 29.7995 190.42C30.8095 190.31 32.2895 190.18 34.1095 190.07C37.7395 189.86 42.8495 189.72 48.3495 190.85C53.8495 191.98 58.4495 194.46 61.2095 196.87C62.6095 198.06 63.5995 199.18 64.2095 200C64.5295 200.4 64.7395 200.74 64.8895 200.96C65.0395 201.2 65.1095 201.33 65.0895 201.33Z" fill="#263238"/>
<path d="M64.8997 177.77C64.8997 177.89 57.3396 177.89 48.0196 177.75C38.6996 177.62 31.1396 177.41 31.1396 177.28C31.1396 177.16 38.6996 177.16 48.0196 177.3C57.3496 177.43 64.8997 177.64 64.8997 177.77Z" fill="#263238"/>
<g opacity="0.5">
<path d="M150.57 218.04C150.57 218.04 150.55 217.89 150.54 217.61C150.53 217.31 150.52 216.88 150.51 216.34C150.51 215.78 150.48 215.09 150.43 214.28C150.4 213.46 150.33 212.53 150.23 211.47C149.86 207.26 148.88 201.15 146.38 193.99C145.14 190.41 143.48 186.6 141.35 182.69C139.23 178.78 136.67 174.73 133.33 171.02C130.01 167.3 125.69 164.13 120.66 162.06C115.65 159.94 110.04 158.83 104.29 158.69C101.41 158.65 98.5597 158.89 95.7897 159.3C93.0197 159.78 90.3297 160.44 87.7597 161.32C85.2097 162.24 82.7197 163.24 80.4397 164.53L79.5797 164.99L78.7497 165.49C78.1997 165.83 77.6497 166.16 77.0997 166.49C76.5697 166.85 76.0497 167.22 75.5297 167.58L74.7497 168.12L74.0097 168.7C70.0597 171.76 66.7997 175.29 64.3197 178.98C61.8197 182.65 59.9997 186.41 58.7197 189.97C57.4397 193.53 56.6997 196.89 56.2597 199.86C56.0897 201.35 55.9097 202.74 55.8797 204.03C55.7797 205.32 55.8197 206.49 55.8297 207.55C55.8097 208.61 55.9397 209.55 55.9797 210.36C56.0197 211.18 56.1197 211.86 56.1997 212.41C56.2697 212.95 56.3197 213.37 56.3597 213.67C56.3897 213.95 56.3997 214.1 56.3997 214.1C56.3997 214.1 56.3597 213.96 56.3197 213.68C56.2697 213.38 56.1997 212.96 56.1197 212.42C56.0297 211.87 55.9097 211.18 55.8597 210.37C55.8097 209.55 55.6597 208.62 55.6697 207.55C55.6497 206.49 55.5997 205.3 55.6897 204.01C55.7097 202.71 55.8797 201.32 56.0297 199.81C56.4397 196.82 57.1697 193.43 58.4397 189.84C59.7097 186.25 61.5197 182.46 64.0297 178.75C66.5197 175.02 69.7897 171.45 73.7697 168.35L74.5097 167.76L75.2897 167.21C75.8097 166.85 76.3397 166.48 76.8697 166.11C77.4197 165.77 77.9697 165.44 78.5297 165.1L79.3697 164.59L80.2397 164.13C82.5397 162.83 85.0497 161.82 87.6197 160.88C90.2197 160 92.9297 159.32 95.7297 158.84C98.5297 158.42 101.4 158.18 104.31 158.22C110.12 158.36 115.79 159.49 120.85 161.63C125.93 163.73 130.31 166.95 133.66 170.72C137.03 174.48 139.59 178.56 141.71 182.49C143.83 186.43 145.48 190.27 146.71 193.87C149.18 201.07 150.12 207.21 150.43 211.44C150.72 215.69 150.57 218.04 150.57 218.04Z" fill="white"/>
</g>
<path d="M398.13 141.15C398.15 141.15 398.13 141.31 398.1 141.61C398.05 141.96 398 142.4 397.93 142.93C397.78 144.07 397.54 145.72 397.39 147.77C397.25 149.81 397.2 152.27 397.72 154.92C398.24 157.56 399.52 160.33 401.7 162.55C403.86 164.79 406.49 166.3 408.98 167.33C411.48 168.36 413.87 168.92 415.88 169.33C417.89 169.73 419.54 169.98 420.68 170.17C421.21 170.26 421.64 170.33 421.99 170.39C422.29 170.44 422.44 170.48 422.44 170.5C422.44 170.52 422.28 170.51 421.98 170.48C421.63 170.44 421.19 170.4 420.66 170.35C419.52 170.22 417.86 170.02 415.83 169.65C413.8 169.27 411.38 168.74 408.83 167.72C406.29 166.7 403.6 165.17 401.38 162.87C399.14 160.59 397.82 157.7 397.31 155C396.8 152.29 396.89 149.79 397.07 147.74C397.26 145.68 397.55 144.04 397.76 142.9C397.86 142.33 397.95 141.89 398.02 141.6C398.07 141.3 398.11 141.14 398.13 141.15Z" fill="#263238"/>
<path d="M237.279 158.47C237.279 158.45 237.409 158.44 237.669 158.43C237.929 158.43 238.309 158.41 238.799 158.49C239.279 158.55 239.929 158.8 240.339 159.42C240.759 160 240.939 160.94 240.529 161.79C240.129 162.63 239.269 163.29 238.239 163.56C237.209 163.85 236.079 163.79 234.939 163.72C232.639 163.59 230.129 163.45 227.499 163.3C226.839 163.26 226.149 163.2 225.509 162.93C224.879 162.66 224.299 162.18 224.069 161.5C223.839 160.81 224.059 160.08 224.439 159.57C224.809 159.04 225.369 158.67 225.939 158.47C227.099 158.08 228.219 158.16 229.229 158.14C230.249 158.14 231.199 158.17 232.069 158.21C233.739 158.28 235.129 158.34 236.169 158.39C237.139 158.42 237.669 158.44 237.669 158.47C237.669 158.49 237.539 158.5 237.279 158.52C237.019 158.54 236.649 158.55 236.159 158.56C235.189 158.58 233.779 158.56 232.049 158.53C231.179 158.52 230.239 158.5 229.219 158.52C228.209 158.55 227.099 158.5 226.069 158.87C225.559 159.05 225.099 159.37 224.779 159.82C224.459 160.26 224.299 160.84 224.479 161.36C224.649 161.88 225.129 162.29 225.669 162.52C226.219 162.75 226.859 162.82 227.509 162.86C230.149 163.02 232.659 163.18 234.949 163.32C236.089 163.4 237.169 163.46 238.129 163.21C239.069 162.97 239.859 162.38 240.229 161.66C240.609 160.93 240.469 160.11 240.119 159.57C239.769 159 239.219 158.76 238.759 158.67C237.819 158.5 237.269 158.52 237.279 158.47Z" fill="#263238"/>
<path d="M337.399 157.65C337.399 157.63 337.529 157.62 337.789 157.61C338.049 157.61 338.429 157.59 338.919 157.67C339.399 157.73 340.049 157.98 340.459 158.6C340.879 159.18 341.059 160.12 340.649 160.97C340.249 161.81 339.389 162.47 338.359 162.74C337.329 163.03 336.199 162.97 335.059 162.9C332.759 162.77 330.249 162.63 327.619 162.48C326.959 162.44 326.269 162.38 325.629 162.11C324.999 161.84 324.419 161.36 324.189 160.68C323.959 159.99 324.179 159.26 324.559 158.75C324.929 158.22 325.489 157.85 326.059 157.65C327.219 157.26 328.339 157.34 329.349 157.32C330.369 157.32 331.319 157.35 332.189 157.39C333.859 157.46 335.249 157.52 336.289 157.57C337.259 157.6 337.789 157.62 337.789 157.65C337.789 157.67 337.659 157.68 337.399 157.7C337.139 157.72 336.769 157.73 336.279 157.74C335.309 157.76 333.899 157.74 332.169 157.71C331.299 157.7 330.359 157.68 329.339 157.7C328.329 157.73 327.219 157.68 326.189 158.05C325.679 158.23 325.219 158.55 324.899 159C324.579 159.44 324.419 160.02 324.599 160.54C324.769 161.06 325.249 161.47 325.789 161.7C326.339 161.93 326.979 162 327.629 162.04C330.269 162.2 332.779 162.36 335.069 162.5C336.209 162.58 337.289 162.64 338.249 162.39C339.189 162.15 339.979 161.56 340.349 160.84C340.729 160.11 340.589 159.29 340.239 158.75C339.889 158.18 339.339 157.94 338.879 157.85C337.949 157.67 337.399 157.7 337.399 157.65Z" fill="#263238"/>
<path d="M352.5 142.73C352.5 142.73 352.47 142.87 352.4 143.13C352.33 143.4 352.22 143.79 352.08 144.31C351.79 145.35 351.36 146.89 350.81 148.89C349.69 152.9 348.04 158.77 345.95 166.22L345.94 166.26L345.9 166.28C342.67 167.79 339.31 169.91 336.16 172.77C334.56 174.17 333.08 175.83 331.63 177.59C330.2 179.38 328.89 181.36 327.66 183.47C325.24 187.72 323.33 192.59 321.98 197.87C320.65 203.15 319.79 208.86 319.79 214.8V214.97H319.63C298.67 214.98 274.39 214.98 248.63 214.99C214.16 214.98 182.35 214.96 157.05 214.95H156.92L156.9 214.82C154.6 196.04 153.15 180.58 152.27 169.83C151.83 164.45 151.53 160.25 151.33 157.39C151.24 155.97 151.17 154.87 151.12 154.13C151.08 153.39 151.06 153.01 151.06 153.01C151.06 153.01 151.1 153.39 151.16 154.12C151.22 154.86 151.3 155.95 151.41 157.38C151.64 160.24 151.99 164.44 152.43 169.82C153.35 180.57 154.85 196.02 157.18 214.79L157.03 214.66C182.33 214.65 214.14 214.64 248.61 214.62C274.37 214.63 298.65 214.63 319.61 214.64L319.45 214.81C319.46 208.82 320.34 203.1 321.68 197.8C323.04 192.5 324.98 187.61 327.42 183.34C328.66 181.22 329.98 179.23 331.42 177.43C332.88 175.65 334.38 174 335.99 172.59C339.17 169.72 342.55 167.59 345.8 166.09L345.75 166.15C347.88 158.7 349.55 152.85 350.7 148.84C351.28 146.85 351.72 145.32 352.02 144.28C352.17 143.77 352.29 143.38 352.36 143.11C352.45 142.87 352.5 142.73 352.5 142.73Z" fill="#263238"/>
<path d="M250.43 146.32C250.44 146.32 250.43 146.38 250.42 146.5C250.41 146.64 250.39 146.81 250.37 147.02C250.31 147.5 250.23 148.17 250.12 149C250 149.86 249.87 150.91 249.74 152.14C249.61 153.37 249.43 154.76 249.31 156.31C249.17 157.85 249.02 159.55 248.91 161.37C248.77 163.19 248.7 165.14 248.6 167.19C248.46 171.29 248.43 175.8 248.58 180.53C248.75 185.26 249.09 189.76 249.5 193.84C249.73 195.88 249.93 197.82 250.2 199.62C250.43 201.43 250.7 203.11 250.94 204.64C251.17 206.18 251.44 207.55 251.65 208.77C251.86 209.99 252.06 211.03 252.24 211.88C252.4 212.71 252.53 213.36 252.62 213.84C252.66 214.05 252.69 214.22 252.71 214.35C252.73 214.47 252.73 214.53 252.73 214.53C252.72 214.53 252.71 214.47 252.67 214.36C252.64 214.23 252.6 214.06 252.54 213.86C252.43 213.39 252.28 212.73 252.09 211.91C251.89 211.06 251.67 210.03 251.44 208.81C251.21 207.6 250.92 206.22 250.68 204.69C250.42 203.16 250.13 201.48 249.89 199.67C249.61 197.86 249.4 195.92 249.16 193.88C248.73 189.79 248.38 185.29 248.21 180.54C248.06 175.8 248.11 171.28 248.26 167.17C248.36 165.12 248.45 163.17 248.6 161.35C248.72 159.53 248.89 157.83 249.05 156.29C249.19 154.74 249.38 153.35 249.53 152.12C249.68 150.89 249.83 149.84 249.97 148.98C250.1 148.15 250.21 147.49 250.29 147C250.33 146.79 250.36 146.62 250.38 146.49C250.41 146.38 250.42 146.32 250.43 146.32Z" fill="#263238"/>
<path d="M151.899 144.3C149.629 146 146.249 146.42 143.479 145.85C140.699 145.28 138.519 143.99 137.089 141.54L143.319 141.26L151.899 144.3Z" fill="#263238"/>
<path d="M143.319 141.27C143.319 141.27 149.599 145.1 151.429 144.58C153.259 144.06 182.549 120.9 200.229 111.96C200.229 111.96 197.899 111.02 194.859 110.74C194.859 110.74 186.629 114.9 176.379 121.08C168.569 125.78 160.629 130.7 156.919 132.97C148.789 137.92 143.319 141.27 143.319 141.27Z" fill="#455A64"/>
<path d="M163.41 146.18C163.41 146.18 163.34 146.23 163.21 146.31C163.06 146.4 162.86 146.52 162.6 146.67C162.04 146.99 161.23 147.45 160.2 148.04C158.08 149.23 155 150.95 151.12 153.13L151.09 153.15H151.06C145.37 152.95 138.07 152.8 129.7 153.14C125.52 153.32 121.07 153.62 116.44 154.09C111.81 154.57 106.99 155.22 102.06 156.01C93.4195 157.36 85.2695 159.06 77.8095 160.43C70.3495 161.77 63.5395 162.52 57.8195 162.83C52.0895 163.16 47.4495 163.07 44.2495 162.98C42.6495 162.93 41.4095 162.87 40.5595 162.81C40.1495 162.78 39.8295 162.76 39.5995 162.75C39.3795 162.73 39.2695 162.72 39.2695 162.72C39.2695 162.72 39.3795 162.71 39.5995 162.72C39.8295 162.73 40.1495 162.73 40.5595 162.74C41.3995 162.77 42.6495 162.81 44.2495 162.84C47.4495 162.89 52.0895 162.93 57.8095 162.57C63.5195 162.23 70.3095 161.45 77.7595 160.1C85.1995 158.72 93.3695 157 102.01 155.65C106.95 154.86 111.77 154.21 116.41 153.74C121.05 153.27 125.5 152.98 129.69 152.82C138.07 152.5 145.38 152.69 151.07 152.93L151.01 152.94C154.91 150.81 158 149.11 160.14 147.95C161.19 147.38 162.01 146.94 162.57 146.64C162.84 146.5 163.05 146.39 163.2 146.31C163.34 146.21 163.41 146.18 163.41 146.18Z" fill="#263238"/>
<path d="M170.089 146.91C214.589 144.92 304.359 143.27 348.859 141.28C348.859 141.28 350.329 136.39 346.139 133.34C344.609 132.23 335.369 125.24 324.579 121.12C307.649 114.66 290.379 112.08 283.469 111.52C275.539 110.87 261.039 110.29 261.039 110.29C261.039 110.29 234.489 111.35 227.079 112.02C216.169 113.01 206.999 115.97 200.219 119.33C190.939 123.92 174.799 137.44 174.799 137.44L163.449 146.91H170.089Z" fill="#455A64"/>
<path d="M251.979 108.97L243.399 145.69L258.969 145.2L262.069 108.97H251.979Z" fill="#263238"/>
<path d="M319.319 117.86L317.799 142.74H319.969L321.429 118.64L319.319 117.86Z" fill="#263238"/>
<path d="M171.769 138.49C172.449 139.41 176.409 148.3 176.409 148.3L161.379 147.32L171.769 138.49Z" fill="#263238"/>
<path d="M185.869 147.41L174.409 147.73C172.899 147.71 171.709 145.02 171.759 141.73C171.799 138.79 172.829 136.3 174.169 135.87L185.049 132.42L185.869 147.41Z" fill="#FF542B"/>
<path d="M256.859 108.55C256.959 108.57 255.749 116.94 254.149 127.24C252.549 137.55 251.179 145.89 251.079 145.88C250.979 145.86 252.189 137.5 253.789 127.18C255.379 116.88 256.759 108.53 256.859 108.55Z" fill="#455A64"/>
<path d="M172.219 137.94C172.309 137.97 171.679 139.75 170.469 141.72C169.269 143.7 167.979 145.07 167.909 145.01C167.829 144.94 168.969 143.48 170.149 141.53C171.339 139.59 172.119 137.9 172.219 137.94Z" fill="#455A64"/>
<path d="M235.739 115.65C235.749 115.66 235.689 115.76 235.569 115.95C235.419 116.18 235.249 116.45 235.039 116.78C234.529 117.54 233.859 118.56 233.029 119.79C231.329 122.33 228.989 125.84 226.429 129.74C223.879 133.64 221.599 137.2 219.959 139.78C219.159 141.03 218.499 142.06 217.999 142.83C217.779 143.16 217.599 143.43 217.459 143.65C217.329 143.84 217.259 143.93 217.249 143.92C217.239 143.91 217.289 143.81 217.399 143.61C217.529 143.38 217.689 143.09 217.889 142.75C218.319 142.01 218.949 140.95 219.749 139.64C221.339 137.03 223.579 133.45 226.139 129.54C228.689 125.63 231.069 122.14 232.829 119.64C233.709 118.39 234.429 117.38 234.929 116.69C235.159 116.38 235.359 116.12 235.519 115.9C235.649 115.73 235.729 115.64 235.739 115.65Z" fill="#EBEBEB"/>
<path d="M229.199 121.21C229.279 121.27 227.719 123.61 225.699 126.43C223.679 129.26 221.979 131.5 221.899 131.44C221.819 131.38 223.379 129.04 225.399 126.22C227.419 123.39 229.119 121.15 229.199 121.21Z" fill="#EBEBEB"/>
<path d="M455.109 166.59C455.109 166.59 451.419 166.82 448.629 165.63C444.209 163.73 442.089 158.48 444.189 154.15C444.199 154.12 444.219 154.1 444.229 154.07C445.549 151.42 448.279 149.52 451.239 149.54H452.779C452.779 149.54 453.469 150.64 453.789 153.22C454.219 156.6 454.849 161.72 455.109 166.59Z" fill="#F5F5F5"/>
<path d="M291.629 116.84C291.719 116.89 288.319 122.39 284.039 129.12C279.759 135.85 276.229 141.26 276.139 141.21C276.049 141.16 279.449 135.66 283.729 128.93C288.009 122.2 291.549 116.79 291.629 116.84Z" fill="#EBEBEB"/>
<path d="M290.48 123.78C290.57 123.84 289.43 125.75 287.95 128.05C286.46 130.35 285.189 132.17 285.109 132.12C285.019 132.06 286.16 130.15 287.64 127.85C289.12 125.55 290.4 123.73 290.48 123.78Z" fill="#EBEBEB"/>
<path d="M183.249 134.55C183.289 134.64 181.389 135.48 178.929 136.19C176.479 136.91 174.429 137.23 174.409 137.13C174.389 137.03 176.389 136.55 178.829 135.84C181.259 135.13 183.209 134.45 183.249 134.55Z" fill="#EBEBEB"/>
<path d="M244.859 150.11C244.859 150.21 226.179 150.29 203.149 150.29C180.109 150.29 161.439 150.21 161.439 150.11C161.439 150.01 180.109 149.93 203.149 149.93C226.179 149.92 244.859 150 244.859 150.11Z" fill="#EBEBEB"/>
<path d="M238.72 157.52C238.72 157.62 236.01 157.7 232.66 157.7C229.31 157.7 226.6 157.62 226.6 157.52C226.6 157.42 229.31 157.34 232.66 157.34C236.01 157.34 238.72 157.42 238.72 157.52Z" fill="#EBEBEB"/>
<path d="M103.109 165.93C103.109 165.94 102.949 165.95 102.649 165.95C102.349 165.95 101.899 165.92 101.329 165.94C100.179 165.93 98.519 165.99 96.489 166.24C92.439 166.71 86.839 168.16 81.489 171.43C76.139 174.69 72.289 179.01 70.019 182.4C68.869 184.1 68.059 185.55 67.539 186.57C67.269 187.07 67.089 187.48 66.949 187.75C66.809 188.02 66.739 188.16 66.719 188.15C66.709 188.14 66.759 188 66.879 187.71C66.999 187.43 67.159 187.01 67.409 186.5C67.889 185.45 68.669 183.97 69.799 182.25C72.029 178.8 75.889 174.41 81.299 171.11C86.699 167.81 92.369 166.38 96.459 165.98C98.509 165.77 100.189 165.75 101.339 165.8C101.919 165.81 102.359 165.86 102.659 165.88C102.949 165.89 103.109 165.91 103.109 165.93Z" fill="#EBEBEB"/>
<path d="M316.429 148.14C316.429 148.24 304.059 148.32 288.809 148.32C273.549 148.32 261.189 148.24 261.189 148.14C261.189 148.04 273.549 147.96 288.809 147.96C304.069 147.96 316.429 148.04 316.429 148.14Z" fill="#EBEBEB"/>
<path d="M340.649 156.43C340.649 156.48 339.879 156.47 338.649 156.44C337.419 156.41 335.719 156.37 333.849 156.36C331.969 156.35 330.279 156.37 329.049 156.39C327.819 156.41 327.059 156.41 327.049 156.36C327.049 156.31 327.799 156.22 329.039 156.13C330.269 156.05 331.969 155.98 333.859 155.99C335.739 156 337.439 156.08 338.669 156.18C339.899 156.28 340.649 156.39 340.649 156.43Z" fill="#EBEBEB"/>
<path d="M385.459 92.2897C382.739 92.2897 380.539 90.0797 380.549 87.3597L380.569 81.6897C380.569 81.6897 376.499 81.0597 376.449 76.9797C376.399 72.9097 377.109 63.5597 377.109 63.5597C381.819 61.5297 387.269 62.2197 391.329 65.3497L390.369 87.7297C390.179 90.2997 388.039 92.2897 385.459 92.2897Z" fill="#B78876"/>
<path d="M380.559 81.6296C380.559 81.6296 383.129 81.8396 385.869 80.1196C385.869 80.1196 384.609 83.0496 380.549 82.6796L380.559 81.6296Z" fill="#AA6550"/>
<path d="M390.869 70.0298C390.939 69.9998 393.669 69.1998 393.579 71.9898C393.489 74.7698 390.709 74.1098 390.709 74.0298C390.709 73.9498 390.869 70.0298 390.869 70.0298Z" fill="#B78876"/>
<path d="M391.599 72.9997C391.609 72.9897 391.649 73.0398 391.729 73.0798C391.809 73.1198 391.949 73.1497 392.089 73.0997C392.389 72.9997 392.649 72.5398 392.679 72.0398C392.699 71.7898 392.649 71.5397 392.569 71.3397C392.489 71.1297 392.359 70.9897 392.219 70.9597C392.069 70.9197 391.969 71.0098 391.929 71.0798C391.889 71.1598 391.909 71.2098 391.889 71.2198C391.879 71.2298 391.829 71.1697 391.859 71.0597C391.869 71.0097 391.909 70.9397 391.979 70.8897C392.049 70.8397 392.149 70.8098 392.249 70.8298C392.459 70.8498 392.649 71.0597 392.739 71.2797C392.839 71.4997 392.899 71.7797 392.879 72.0597C392.839 72.6197 392.539 73.1397 392.129 73.2397C391.929 73.2797 391.769 73.2198 391.689 73.1498C391.599 73.0698 391.589 73.0097 391.599 72.9997Z" fill="#AA6550"/>
<path d="M378.578 69.8698C378.568 70.1798 378.818 70.4398 379.138 70.4598C379.458 70.4798 379.728 70.2398 379.738 69.9398C379.748 69.6298 379.498 69.3698 379.178 69.3498C378.858 69.3298 378.588 69.5698 378.578 69.8698Z" fill="#263238"/>
<path d="M377.869 69.2897C377.939 69.3697 378.379 69.0397 379.009 69.0397C379.639 69.0297 380.089 69.3497 380.159 69.2797C380.189 69.2497 380.119 69.1097 379.919 68.9597C379.719 68.8097 379.389 68.6697 378.999 68.6797C378.609 68.6797 378.279 68.8297 378.089 68.9697C377.899 69.1197 377.839 69.2597 377.869 69.2897Z" fill="#263238"/>
<path d="M384.708 69.8698C384.698 70.1798 384.948 70.4398 385.268 70.4598C385.588 70.4798 385.858 70.2398 385.868 69.9398C385.878 69.6298 385.628 69.3698 385.308 69.3498C384.988 69.3298 384.718 69.5698 384.708 69.8698Z" fill="#263238"/>
<path d="M384.028 69.4098C384.098 69.4898 384.538 69.1598 385.168 69.1598C385.798 69.1498 386.248 69.4698 386.318 69.3998C386.348 69.3698 386.278 69.2298 386.078 69.0798C385.878 68.9298 385.548 68.7898 385.158 68.7998C384.768 68.7998 384.438 68.9498 384.248 69.0898C384.058 69.2398 383.988 69.3698 384.028 69.4098Z" fill="#263238"/>
<path d="M381.748 74.0496C381.748 74.0096 381.358 73.9496 380.728 73.8696C380.568 73.8496 380.418 73.8196 380.388 73.7096C380.348 73.5896 380.418 73.4196 380.498 73.2396C380.648 72.8496 380.808 72.4496 380.968 72.0196C381.628 70.2896 382.098 68.8596 382.028 68.8396C381.958 68.8096 381.368 70.1996 380.708 71.9296C380.548 72.3596 380.398 72.7596 380.258 73.1496C380.198 73.3296 380.098 73.5396 380.178 73.7796C380.218 73.8996 380.338 73.9896 380.438 74.0096C380.538 74.0396 380.628 74.0396 380.708 74.0496C381.358 74.0796 381.748 74.0896 381.748 74.0496Z" fill="#263238"/>
<path d="M383.599 74.4796C383.499 74.4696 383.499 75.1496 382.919 75.6396C382.339 76.1196 381.619 76.0496 381.609 76.1396C381.599 76.1796 381.769 76.2696 382.079 76.2796C382.379 76.2896 382.819 76.1896 383.169 75.8996C383.519 75.5996 383.679 75.2096 383.699 74.9296C383.719 74.6496 383.639 74.4796 383.599 74.4796Z" fill="#263238"/>
<path d="M383.858 66.9596C383.918 67.1296 384.548 67.0496 385.278 67.1396C386.018 67.2096 386.608 67.4296 386.708 67.2796C386.748 67.2096 386.648 67.0496 386.408 66.8796C386.168 66.7196 385.788 66.5596 385.348 66.5096C384.908 66.4596 384.508 66.5296 384.238 66.6396C383.968 66.7396 383.838 66.8696 383.858 66.9596Z" fill="#263238"/>
<path d="M378.099 67.4795C378.209 67.6195 378.639 67.4695 379.159 67.4695C379.679 67.4395 380.119 67.5695 380.219 67.4195C380.259 67.3495 380.199 67.2095 379.999 67.0695C379.809 66.9395 379.489 66.8295 379.139 66.8395C378.779 66.8495 378.479 66.9795 378.289 67.1295C378.119 67.2595 378.059 67.4095 378.099 67.4795Z" fill="#263238"/>
<path d="M375.119 60.9898C375.079 60.4898 375.259 59.9398 375.679 59.6498C376.089 59.3498 376.729 59.3698 377.059 59.7498C376.869 59.0698 377.419 58.2898 378.129 58.2398C378.789 58.1998 379.359 58.6998 379.999 58.8798C380.629 59.0498 381.299 58.8998 381.899 58.6598C382.499 58.4198 383.069 58.0798 383.679 57.8598C384.949 57.3998 386.409 57.4498 387.639 58.0198C388.869 58.5898 389.859 59.6498 390.339 60.9198C391.229 60.6398 392.239 61.0898 392.789 61.8498C393.339 62.5998 393.479 63.5998 393.369 64.5198C393.299 65.1498 393.119 65.7498 392.899 66.3498C392.899 66.3998 392.909 66.4498 392.899 66.5098C392.859 68.7498 392.599 71.3798 391.649 71.3898C389.979 71.4198 390.379 68.2798 390.379 68.2798C388.339 67.4898 389.099 64.4298 388.589 63.9598C388.079 63.4998 387.009 62.4198 382.729 64.5998C381.069 65.4498 378.859 65.4198 377.649 65.1498C377.609 65.1398 377.579 65.1398 377.539 65.1298C377.529 65.1298 377.519 65.1298 377.519 65.1198C377.509 65.1198 377.499 65.1098 377.479 65.1098C377.099 65.0098 376.719 64.8598 376.379 64.6398C375.989 64.3898 375.639 64.0598 375.479 63.6298C375.319 63.1998 375.379 62.6698 375.709 62.3598C375.409 61.9698 375.159 61.4998 375.119 60.9898Z" fill="#263238"/>
<path d="M425.459 88.5298C425.359 88.6998 424.2 90.8798 424.2 90.8798C424.2 90.8798 425.119 87.3098 425.16 87.1798C425.459 86.0098 424.739 86.1298 424.529 86.5498C424.309 86.9798 423.01 90.4898 423.01 90.4898C424.24 85.8998 423.85 85.4898 423.51 85.4198C423.17 85.3498 422.079 89.5498 422.079 89.5498C422.079 89.5498 421.689 88.8298 420.969 88.3398C419.859 87.5798 418.01 88.3398 417.92 88.8598C417.83 89.3798 418.489 89.5298 418.489 89.5298C419.879 88.6298 421.299 89.7198 421.16 91.0398C421.01 92.3698 419.34 92.1798 419.13 91.2398C418.67 89.1698 417.959 89.8398 417.959 89.8398L418.67 94.4098L417.91 96.7098L413.779 107.91L405.88 99.6898C405.88 99.6898 401.659 109.02 401.559 109.34C401.489 109.55 405.52 113.74 408.17 116.46C409.6 117.93 411.58 118.75 413.63 118.72C417.06 118.67 420.009 116.29 420.799 112.95L423.92 96.8598L425.38 91.5898C425.38 91.5898 425.909 89.4498 426.029 88.9498C426.199 88.2798 425.729 88.0698 425.459 88.5298Z" fill="#B78876"/>
<path d="M355.299 119.95C357.659 120.36 360.359 118.67 361.809 116.77L367.689 109.02L360.779 102.85L354.589 110.59L331.329 109.36L325.839 106.28C325.459 106.07 325.029 105.99 324.599 106.06L317.039 108.19L324.129 110.37L336.509 115.03L355.299 119.95Z" fill="#B78876"/>
<path d="M408.01 233.94L408.98 238.03C408.98 238.03 415.67 246.73 417.74 246.3C419.09 246.02 417.43 243.75 414.88 237.15L414.35 234.42L408.01 233.94Z" fill="#FF542B"/>
<path d="M418.02 245.01C418.02 245.01 418.01 245.06 417.97 245.13C417.92 245.2 417.84 245.31 417.69 245.39C417.54 245.47 417.34 245.53 417.09 245.52C416.85 245.51 416.58 245.4 416.33 245.24C415.38 244.52 414.21 243.39 412.96 242.1C411.72 240.8 410.68 239.53 409.97 238.59C409.61 238.12 409.33 237.73 409.15 237.46C409.07 237.35 409 237.25 408.94 237.15C408.89 237.08 408.87 237.04 408.87 237.04C408.87 237.04 408.9 237.07 408.96 237.14C409.03 237.24 409.11 237.33 409.19 237.44C409.44 237.76 409.72 238.13 410.05 238.54C410.78 239.46 411.82 240.71 413.06 242.01C414.3 243.3 415.48 244.44 416.39 245.17C416.87 245.52 417.39 245.51 417.67 245.35C417.95 245.21 418 245 418.02 245.01Z" fill="#263238"/>
<path d="M417.07 242.22C417.07 242.24 416.86 242.2 416.53 242.25C416.2 242.29 415.76 242.44 415.33 242.71C414.89 242.97 414.58 243.32 414.43 243.61C414.27 243.9 414.23 244.11 414.21 244.1C414.2 244.1 414.21 243.88 414.35 243.56C414.49 243.24 414.81 242.86 415.27 242.59C415.72 242.31 416.19 242.17 416.53 242.15C416.86 242.13 417.07 242.21 417.07 242.22Z" fill="#263238"/>
<path d="M410.73 240.18C410.71 240.17 410.8 239.89 410.85 239.41C410.91 238.94 410.85 238.26 410.51 237.62C410.18 236.97 409.65 236.54 409.23 236.33C408.8 236.12 408.5 236.09 408.5 236.07C408.5 236.06 408.58 236.06 408.71 236.08C408.85 236.1 409.04 236.15 409.26 236.25C409.71 236.44 410.27 236.89 410.62 237.57C410.97 238.24 411.02 238.96 410.93 239.43C410.89 239.67 410.84 239.86 410.8 239.99C410.77 240.11 410.74 240.18 410.73 240.18Z" fill="#263238"/>
<path d="M408.43 234.63C408.47 234.62 408.68 235.19 408.8 235.91C408.92 236.64 409.05 237.21 409.02 237.22C408.98 237.23 408.79 236.66 408.67 235.93C408.55 235.21 408.4 234.64 408.43 234.63Z" fill="#263238"/>
<path d="M415.01 237.72C415.01 237.76 414.63 237.75 414.18 237.85C413.73 237.95 413.4 238.13 413.38 238.09C413.36 238.06 413.68 237.83 414.15 237.72C414.62 237.62 415.01 237.69 415.01 237.72Z" fill="#263238"/>
<path d="M415.14 238.43C415.13 238.47 414.82 238.44 414.45 238.53C414.08 238.62 413.81 238.79 413.79 238.76C413.77 238.74 414.02 238.5 414.42 238.41C414.82 238.3 415.15 238.39 415.14 238.43Z" fill="#263238"/>
<path d="M415.679 239.31C415.669 239.35 415.349 239.24 414.959 239.34C414.569 239.42 414.319 239.66 414.299 239.63C414.269 239.61 414.499 239.31 414.929 239.21C415.359 239.1 415.699 239.28 415.679 239.31Z" fill="#263238"/>
<path d="M414.539 237.43C414.539 237.44 414.459 237.43 414.319 237.41C414.179 237.38 413.969 237.33 413.729 237.25C413.479 237.17 413.199 237.05 412.899 236.88C412.749 236.8 412.599 236.7 412.439 236.59C412.289 236.48 412.109 236.33 412.109 236.08C412.129 235.81 412.429 235.7 412.619 235.76C412.829 235.81 412.969 235.96 413.089 236.07C413.339 236.31 413.539 236.54 413.699 236.74C413.859 236.94 413.989 237.11 414.069 237.23C414.149 237.35 414.189 237.42 414.179 237.43C414.159 237.44 413.969 237.19 413.629 236.8C413.459 236.61 413.249 236.39 412.999 236.16C412.879 236.05 412.749 235.92 412.589 235.89C412.439 235.85 412.239 235.93 412.239 236.09C412.229 236.24 412.379 236.39 412.519 236.49C412.669 236.59 412.819 236.69 412.959 236.77C413.249 236.94 413.529 237.06 413.769 237.16C414.239 237.34 414.549 237.41 414.539 237.43Z" fill="#263238"/>
<path d="M414.19 237.35C414.18 237.35 414.18 237.28 414.18 237.15C414.18 237.02 414.19 236.83 414.22 236.59C414.25 236.36 414.3 236.07 414.43 235.78C414.5 235.63 414.57 235.49 414.69 235.35C414.8 235.23 415 235.07 415.23 235.18C415.44 235.31 415.43 235.55 415.42 235.71C415.39 235.89 415.34 236.05 415.27 236.19C415.14 236.48 414.96 236.71 414.79 236.88C414.62 237.05 414.47 237.17 414.36 237.24C414.26 237.32 414.2 237.35 414.19 237.35C414.18 237.33 414.42 237.17 414.73 236.82C414.88 236.65 415.05 236.42 415.17 236.15C415.23 236.01 415.28 235.86 415.3 235.7C415.32 235.55 415.3 235.36 415.18 235.3C415.06 235.23 414.91 235.33 414.8 235.44C414.7 235.56 414.62 235.7 414.55 235.83C414.42 236.1 414.36 236.37 414.32 236.6C414.24 237.06 414.21 237.35 414.19 237.35Z" fill="#263238"/>
<g opacity="0.4">
<path d="M408.98 238.03L408.51 236.06C408.51 236.06 410.15 236.36 410.58 237.59C411.01 238.82 410.9 239.69 410.9 239.69L414.47 243.53C414.47 243.53 415.36 241.78 416.99 242.2C416.99 242.2 418.26 245 418.23 245.71C418.19 246.48 417.37 246.33 417.08 246.2C416.95 246.14 415.41 245.26 413.89 243.68C411.98 241.72 409.9 239.23 408.98 238.03Z" fill="black"/>
</g>
<path d="M374.729 236L374.699 230.54L384.929 230.42L385.059 238.41L384.429 238.46C381.609 238.65 370.079 239.23 368.189 238.68C366.059 238.07 374.729 236 374.729 236Z" fill="#FF542B"/>
<g opacity="0.4">
<path d="M381.339 238.37C381.479 237.51 381.939 236.71 382.619 236.17C383.299 235.63 384.139 235.34 384.999 235.4L385.039 238.26L381.339 238.37Z" fill="black"/>
</g>
<g opacity="0.4">
<path d="M370.499 237.16C370.499 237.16 367.469 238.08 367.849 238.57C368.239 239.07 379.909 238.92 385.059 238.4L385.039 238.17L371.419 238.46C371.419 238.47 371.089 237.18 370.499 237.16Z" fill="black"/>
</g>
<path d="M385.189 238.17C385.189 238.17 385.129 238.18 385.009 238.19C384.859 238.2 384.689 238.21 384.509 238.23C384.009 238.26 383.379 238.29 382.649 238.33C381.079 238.41 378.909 238.48 376.519 238.52C374.119 238.55 371.949 238.53 370.379 238.5C369.649 238.48 369.029 238.46 368.519 238.45C368.329 238.44 368.169 238.43 368.009 238.43C367.889 238.42 367.829 238.42 367.829 238.41C367.829 238.41 367.889 238.4 368.009 238.4C368.159 238.4 368.329 238.4 368.519 238.4C369.029 238.4 369.649 238.41 370.379 238.41C371.949 238.42 374.119 238.43 376.519 238.39C378.919 238.36 381.079 238.29 382.649 238.24C383.379 238.21 383.999 238.19 384.509 238.18C384.699 238.17 384.859 238.17 385.019 238.17C385.129 238.17 385.189 238.17 385.189 238.17Z" fill="#263238"/>
<path d="M371.42 238.63C371.38 238.64 371.35 238.19 371.06 237.75C370.78 237.3 370.4 237.08 370.42 237.05C370.43 237.02 370.87 237.21 371.17 237.69C371.47 238.16 371.45 238.63 371.42 238.63Z" fill="#263238"/>
<path d="M374.42 237.06C374.39 237.08 374.24 236.9 374.09 236.67C373.94 236.44 373.84 236.23 373.87 236.21C373.9 236.19 374.05 236.37 374.2 236.6C374.35 236.83 374.45 237.04 374.42 237.06Z" fill="#263238"/>
<path d="M375.24 236.61C375.22 236.64 375.05 236.53 374.88 236.37C374.7 236.21 374.58 236.07 374.6 236.04C374.62 236.01 374.79 236.12 374.96 236.28C375.14 236.44 375.26 236.58 375.24 236.61Z" fill="#263238"/>
<path d="M375.75 235.64C375.75 235.67 375.51 235.71 375.22 235.71C374.92 235.72 374.69 235.7 374.68 235.66C374.68 235.63 374.92 235.59 375.21 235.59C375.51 235.58 375.75 235.6 375.75 235.64Z" fill="#263238"/>
<path d="M375.919 234.95C375.929 234.98 375.669 235.1 375.329 235.13C374.979 235.16 374.709 235.09 374.709 235.06C374.719 235.02 374.989 235.04 375.309 235.01C375.649 234.98 375.909 234.92 375.919 234.95Z" fill="#263238"/>
<path d="M374.059 236.17C374.059 236.18 373.809 236.22 373.399 236.17C373.199 236.15 372.959 236.1 372.699 236.02C372.569 235.98 372.439 235.94 372.299 235.86C372.229 235.82 372.159 235.76 372.129 235.66C372.099 235.56 372.149 235.45 372.229 235.4C372.849 235.07 373.489 235.41 373.719 235.73C373.849 235.89 373.909 236.05 373.939 236.17C373.969 236.28 373.969 236.35 373.959 236.35C373.939 236.36 373.909 236.09 373.649 235.79C373.519 235.64 373.329 235.5 373.079 235.43C372.849 235.36 372.519 235.35 372.299 235.49C372.199 235.57 372.239 235.69 372.359 235.76C372.469 235.83 372.609 235.87 372.729 235.91C372.979 235.99 373.209 236.05 373.409 236.08C373.809 236.15 374.059 236.15 374.059 236.17Z" fill="#263238"/>
<path d="M373.889 236.2C373.879 236.21 373.779 236.04 373.809 235.74C373.819 235.59 373.879 235.42 373.979 235.26C374.089 235.11 374.239 234.91 374.519 234.92C374.669 234.94 374.749 235.11 374.729 235.22C374.719 235.34 374.669 235.43 374.619 235.52C374.519 235.69 374.419 235.82 374.309 235.92C374.109 236.12 373.939 236.2 373.939 236.19C373.929 236.17 374.069 236.07 374.249 235.86C374.339 235.75 374.429 235.62 374.519 235.46C374.609 235.32 374.669 235.07 374.499 235.04C374.339 235.03 374.169 235.19 374.069 235.32C373.969 235.46 373.909 235.62 373.889 235.75C373.849 236.03 373.909 236.2 373.889 236.2Z" fill="#263238"/>
<path d="M384.95 235.38C384.95 235.4 384.66 235.36 384.2 235.42C383.74 235.48 383.11 235.67 382.56 236.12C382.01 236.57 381.69 237.15 381.55 237.59C381.4 238.03 381.39 238.33 381.37 238.32C381.36 238.32 381.36 238.25 381.37 238.11C381.38 237.98 381.41 237.79 381.47 237.56C381.6 237.1 381.92 236.49 382.49 236.02C383.06 235.55 383.73 235.36 384.2 235.33C384.44 235.31 384.63 235.32 384.76 235.34C384.88 235.35 384.95 235.37 384.95 235.38Z" fill="#263238"/>
<path d="M383.839 231.13C383.869 231.13 383.929 232.07 383.959 233.23C383.989 234.39 383.989 235.33 383.949 235.33C383.919 235.33 383.859 234.39 383.829 233.23C383.799 232.08 383.799 231.13 383.839 231.13Z" fill="#263238"/>
<path d="M380.04 237.39C380.04 237.42 379.38 237.54 378.55 237.56C377.72 237.58 377.05 237.49 377.05 237.46C377.05 237.42 377.72 237.46 378.54 237.44C379.37 237.42 380.04 237.36 380.04 237.39Z" fill="#263238"/>
<path d="M382.049 237.36C382.079 237.38 381.999 237.5 381.929 237.66C381.859 237.81 381.829 237.95 381.789 237.95C381.759 237.95 381.739 237.79 381.809 237.61C381.889 237.43 382.029 237.34 382.049 237.36Z" fill="#263238"/>
<path d="M382.79 236.41C382.81 236.43 382.75 236.54 382.65 236.65C382.55 236.76 382.44 236.83 382.42 236.8C382.4 236.78 382.46 236.67 382.56 236.56C382.66 236.46 382.77 236.39 382.79 236.41Z" fill="#263238"/>
<path d="M383.87 235.97C383.86 236 383.73 236.01 383.58 236.06C383.43 236.11 383.32 236.2 383.3 236.17C383.27 236.15 383.36 236 383.54 235.94C383.72 235.88 383.88 235.94 383.87 235.97Z" fill="#263238"/>
<path d="M384.629 235.76C384.639 235.79 384.579 235.84 384.499 235.88C384.419 235.91 384.339 235.92 384.319 235.88C384.309 235.85 384.369 235.79 384.449 235.76C384.539 235.73 384.619 235.73 384.629 235.76Z" fill="#263238"/>
<path d="M418.869 234.66L398.649 127.58L370.539 131.86L372.539 233.65L388.469 233.99L385.819 145.19L403.729 234.66H418.869Z" fill="#455A64"/>
<path d="M401.759 137.83L369.629 136.63L370.539 107.31L366.329 112.11L357.739 104.67L367.189 91.7899C369.639 88.4799 373.329 86.2999 377.419 85.7399C378.619 85.5799 379.529 85.4999 380.119 85.4199C383.609 86.4999 387.109 86.4899 390.599 85.4099C392.219 85.4799 393.619 85.7599 394.939 86.2399C397.659 87.2199 399.929 88.7099 401.869 90.7199L412.409 104.97L403.399 112.77L398.269 108.26L401.759 137.83Z" fill="#263238"/>
<path d="M371.019 96.24C371.119 96.24 371.019 101.12 370.799 107.13C370.579 113.14 370.309 118.01 370.209 118.01C370.109 118.01 370.209 113.13 370.429 107.12C370.659 101.11 370.919 96.24 371.019 96.24Z" fill="#455A64"/>
<path d="M397.129 98.1599C397.229 98.1499 397.589 100.97 397.919 104.46C398.259 107.95 398.449 110.78 398.349 110.79C398.249 110.8 397.889 107.98 397.559 104.49C397.219 101.01 397.029 98.1699 397.129 98.1599Z" fill="#455A64"/>
<path d="M381.399 85.7498C381.459 85.8298 381.219 86.1298 380.859 86.4098C380.499 86.6898 380.149 86.8598 380.089 86.7798C380.029 86.6998 380.269 86.3998 380.629 86.1198C380.989 85.8398 381.339 85.6698 381.399 85.7498Z" fill="#455A64"/>
<path d="M382.859 86.0698C382.949 86.1198 382.879 86.4098 382.789 86.7498C382.689 87.0898 382.599 87.3698 382.489 87.3698C382.389 87.3698 382.319 87.0398 382.429 86.6498C382.539 86.2598 382.779 86.0198 382.859 86.0698Z" fill="#455A64"/>
<path d="M384.529 86.2798C384.629 86.2698 384.729 86.5498 384.739 86.8998C384.759 87.2398 384.689 87.5298 384.589 87.5298C384.489 87.5298 384.389 87.2598 384.379 86.9098C384.359 86.5598 384.429 86.2798 384.529 86.2798Z" fill="#455A64"/>
<path d="M386.659 86.1199C386.759 86.1199 386.849 86.4199 386.949 86.7699C387.039 87.1199 387.119 87.4199 387.029 87.4799C386.939 87.5299 386.699 87.2699 386.599 86.8699C386.479 86.4599 386.559 86.1199 386.659 86.1199Z" fill="#455A64"/>
<path d="M389.049 85.86C389.149 85.82 389.309 86.04 389.499 86.29C389.689 86.54 389.849 86.7599 389.789 86.8399C389.729 86.9199 389.429 86.81 389.209 86.51C388.979 86.21 388.949 85.89 389.049 85.86Z" fill="#455A64"/>
<path d="M390.3 85.5C390.36 85.41 390.6 85.47 390.84 85.63C391.08 85.79 391.24 85.99 391.18 86.07C391.12 86.16 390.88 86.1 390.64 85.94C390.4 85.79 390.25 85.59 390.3 85.5Z" fill="#455A64"/>
<path d="M397.799 105.13C397.799 105.23 391.779 105.32 384.349 105.32C376.919 105.33 370.899 105.25 370.899 105.14C370.899 105.04 376.919 104.95 384.349 104.95C391.779 104.95 397.799 105.03 397.799 105.13Z" fill="#FAFAFA"/>
<path d="M398.04 107.12C398.04 107.22 392.02 107.31 384.59 107.31C377.16 107.31 371.14 107.24 371.14 107.13C371.14 107.03 377.16 106.94 384.59 106.94C392.01 106.94 398.04 107.02 398.04 107.12Z" fill="#FAFAFA"/>
<path d="M398.269 109.11C398.269 109.21 392.079 109.35 384.449 109.42C376.809 109.49 370.619 109.46 370.619 109.36C370.619 109.26 376.809 109.12 384.439 109.05C392.069 108.98 398.269 109.01 398.269 109.11Z" fill="#FAFAFA"/>
<path d="M406.999 97.46C407.029 97.5 406.599 97.98 405.849 98.73C405.099 99.47 404.029 100.46 402.799 101.5C401.569 102.54 400.409 103.43 399.559 104.05C398.699 104.67 398.149 105.01 398.119 104.97C398.089 104.93 398.589 104.51 399.399 103.84C400.319 103.08 401.379 102.2 402.569 101.22C403.729 100.22 404.779 99.31 405.679 98.54C406.459 97.85 406.959 97.43 406.999 97.46Z" fill="#FAFAFA"/>
<path d="M408.63 99.24C408.66 99.28 408.15 99.8 407.27 100.58C406.39 101.37 405.14 102.42 403.71 103.52C402.28 104.62 400.94 105.56 399.96 106.2C398.97 106.85 398.34 107.21 398.31 107.17C398.28 107.13 398.86 106.69 399.81 105.98C400.76 105.28 402.06 104.31 403.49 103.22C404.91 102.12 406.18 101.11 407.1 100.38C408.02 99.65 408.59 99.2 408.63 99.24Z" fill="#FAFAFA"/>
<path d="M409.45 100.93C409.52 101.01 407.36 102.96 404.64 105.28C401.92 107.61 399.66 109.43 399.59 109.35C399.52 109.27 401.68 107.32 404.4 105C407.13 102.67 409.39 100.85 409.45 100.93Z" fill="#FAFAFA"/>
<path d="M370.64 105.75C370.62 105.79 370.06 105.51 369.27 104.92C368.47 104.33 367.47 103.39 366.44 102.3C365.41 101.21 364.49 100.21 363.84 99.4698C363.19 98.7298 362.81 98.2598 362.84 98.2198C362.88 98.1898 363.33 98.5998 364.03 99.2898C364.73 99.9798 365.67 100.96 366.7 102.05C367.73 103.14 368.69 104.09 369.43 104.72C370.18 105.35 370.67 105.7 370.64 105.75Z" fill="#FAFAFA"/>
<path d="M369.739 108.17C369.709 108.21 369.169 107.82 368.359 107.14C367.539 106.46 366.439 105.48 365.279 104.34C364.119 103.2 363.119 102.12 362.419 101.31C361.719 100.5 361.329 99.9799 361.359 99.9499C361.399 99.9199 361.869 100.38 362.609 101.14C363.349 101.9 364.379 102.95 365.529 104.08C366.679 105.21 367.749 106.22 368.519 106.95C369.299 107.68 369.769 108.13 369.739 108.17Z" fill="#FAFAFA"/>
<path d="M368.75 109.91C368.71 109.95 368.23 109.48 367.47 108.72C366.7 107.96 365.64 106.92 364.44 105.8C363.24 104.68 362.12 103.7 361.31 102.99C360.5 102.28 360 101.84 360.03 101.8C360.06 101.76 360.62 102.13 361.48 102.79C362.34 103.45 363.49 104.41 364.7 105.53C365.91 106.66 366.95 107.73 367.67 108.54C368.37 109.34 368.78 109.87 368.75 109.91Z" fill="#FAFAFA"/>
<path d="M401.69 136.47C401.69 136.57 394.55 136.48 385.75 136.25C376.94 136.03 369.81 135.77 369.81 135.67C369.81 135.57 376.95 135.66 385.76 135.89C394.56 136.11 401.69 136.37 401.69 136.47Z" fill="#455A64"/>
<path d="M473.409 197.64C475.269 198.49 476.619 200.25 477.279 202.19C477.939 204.13 477.959 206.23 477.689 208.26C477.169 212.19 474.859 216.12 472.389 219.22C469.129 216.27 468.459 211.21 468.289 208.62C468.009 204.52 469.979 196.96 473.409 197.64Z" fill="#FF542B"/>
<path d="M476.119 225.78C475.629 223.55 476.599 221.12 478.339 219.63C480.079 218.14 482.469 217.54 484.749 217.76C485.799 217.86 486.939 218.19 487.519 219.07C488.069 219.89 487.979 221.02 487.509 221.89C487.039 222.76 486.229 223.4 485.379 223.91C482.479 225.66 479.349 226.82 476.119 225.78Z" fill="#FF542B"/>
<path d="M471.639 237.77C471.619 237.77 471.669 237.48 471.769 236.96C471.879 236.39 472.029 235.66 472.209 234.78C472.609 232.96 473.129 230.35 474.599 227.84C476.049 225.33 478.039 223.51 479.709 222.61C480.539 222.15 481.259 221.88 481.769 221.74C482.019 221.66 482.229 221.63 482.359 221.6C482.499 221.57 482.569 221.57 482.569 221.57C482.589 221.63 481.419 221.82 479.809 222.77C478.199 223.69 476.269 225.5 474.849 227.97C473.409 230.43 472.859 233 472.409 234.81C472.189 235.72 472.019 236.46 471.879 236.97C471.749 237.49 471.659 237.77 471.639 237.77Z" fill="#263238"/>
<path d="M472.409 203.53C472.419 203.53 472.429 203.65 472.439 203.88C472.449 204.14 472.459 204.48 472.479 204.9C472.509 205.78 472.539 207.06 472.559 208.64C472.599 211.79 472.599 216.15 472.489 220.97C472.379 225.78 472.179 230.14 471.989 233.29C471.899 234.86 471.809 236.14 471.739 237.02C471.699 237.44 471.669 237.77 471.649 238.03C471.629 238.26 471.609 238.38 471.599 238.38C471.589 238.38 471.589 238.26 471.589 238.02C471.599 237.76 471.609 237.42 471.619 237C471.659 236.08 471.709 234.82 471.779 233.27C471.919 230.12 472.079 225.77 472.199 220.95C472.309 216.14 472.339 211.78 472.349 208.63C472.349 207.08 472.359 205.81 472.359 204.89C472.369 204.47 472.369 204.14 472.369 203.87C472.389 203.65 472.399 203.53 472.409 203.53Z" fill="#263238"/>
<path d="M470.339 228.07C469.679 223.29 466.549 218.93 462.239 216.77C461.139 216.22 459.699 215.85 458.779 216.65C457.849 217.46 458.029 218.94 458.449 220.1C460.219 224.9 465.139 228.36 470.249 228.4" fill="#FF542B"/>
<path d="M462.71 220.51C462.72 220.49 462.97 220.61 463.41 220.83C463.63 220.94 463.9 221.08 464.2 221.27C464.49 221.46 464.85 221.65 465.2 221.92C465.56 222.18 465.96 222.46 466.34 222.81C466.75 223.14 467.14 223.53 467.55 223.95C468.35 224.81 469.15 225.83 469.83 227C470.5 228.18 470.98 229.39 471.31 230.51C471.46 231.08 471.6 231.62 471.67 232.14C471.77 232.65 471.8 233.14 471.84 233.58C471.89 234.02 471.86 234.42 471.87 234.77C471.88 235.12 471.85 235.42 471.83 235.67C471.78 236.16 471.75 236.43 471.73 236.43C471.67 236.43 471.8 235.34 471.64 233.59C471.59 233.16 471.55 232.68 471.44 232.18C471.36 231.67 471.21 231.14 471.06 230.59C470.72 229.49 470.25 228.3 469.59 227.14C468.92 225.99 468.14 224.98 467.36 224.13C466.96 223.71 466.58 223.32 466.19 222.99C465.82 222.64 465.43 222.35 465.09 222.08C463.67 221.04 462.68 220.56 462.71 220.51Z" fill="#263238"/>
</svg>
