<svg width="70" height="70" viewBox="0 0 70 70" fill="none" xmlns="http://www.w3.org/2000/svg">
<g filter="url(#filter0_d_193_2087)">
<circle cx="35" cy="31" r="27" fill="#FFFF"/>
</g>
<g clip-path="url(#clip0_193_2087)">
<path d="M45 36.002C44.9996 37.3696 44.5321 38.696 43.675 39.7616C42.8179 40.8273 41.6226 41.5683 40.287 41.862L39.649 39.948C40.2332 39.8518 40.7888 39.6271 41.2758 39.2903C41.7627 38.9534 42.1689 38.5128 42.465 38H40C39.4696 38 38.9609 37.7893 38.5858 37.4142C38.2107 37.0391 38 36.5304 38 36V32C38 31.4696 38.2107 30.9609 38.5858 30.5858C38.9609 30.2107 39.4696 30 40 30H42.938C42.694 28.0669 41.7529 26.2893 40.2914 25.0007C38.8299 23.7121 36.9484 23.0011 35 23.0011C33.0516 23.0011 31.1701 23.7121 29.7086 25.0007C28.2471 26.2893 27.306 28.0669 27.062 30H30C30.5304 30 31.0391 30.2107 31.4142 30.5858C31.7893 30.9609 32 31.4696 32 32V36C32 36.5304 31.7893 37.0391 31.4142 37.4142C31.0391 37.7893 30.5304 38 30 38H27C26.4696 38 25.9609 37.7893 25.5858 37.4142C25.2107 37.0391 25 36.5304 25 36V31C25 25.477 29.477 21 35 21C40.523 21 45 25.477 45 31V36.002Z" fill="#EA7B00"/>
</g>
<defs>
<filter id="filter0_d_193_2087" x="0" y="0" width="70" height="70" filterUnits="userSpaceOnUse" color-interpolation-filters="sRGB">
<feFlood flood-opacity="0" result="BackgroundImageFix"/>
<feColorMatrix in="SourceAlpha" type="matrix" values="0 0 0 0 0 0 0 0 0 0 0 0 0 0 0 0 0 0 127 0" result="hardAlpha"/>
<feOffset dy="4"/>
<feGaussianBlur stdDeviation="4"/>
<feComposite in2="hardAlpha" operator="out"/>
<feColorMatrix type="matrix" values="0 0 0 0 0 0 0 0 0 0 0 0 0 0 0 0 0 0 0.12 0"/>
<feBlend mode="normal" in2="BackgroundImageFix" result="effect1_dropShadow_193_2087"/>
<feBlend mode="normal" in="SourceGraphic" in2="effect1_dropShadow_193_2087" result="shape"/>
</filter>
<clipPath id="clip0_193_2087">
<rect width="24" height="24" fill="white" transform="translate(23 19)"/>
</clipPath>
</defs>
</svg>
