<svg width="70" height="70" viewBox="0 0 70 70" fill="none" xmlns="http://www.w3.org/2000/svg">
<g filter="url(#filter0_d_193_2118)">
<circle cx="35" cy="31" r="27" fill="#FFFF"/>
</g>
<g clip-path="url(#clip0_193_2118)">
<path d="M33.9001 21.1016L43.7991 22.5166L45.2131 32.4166L36.0211 41.6086C35.8336 41.796 35.5793 41.9013 35.3141 41.9013C35.0489 41.9013 34.7946 41.796 34.6071 41.6086L24.7071 31.7086C24.5196 31.521 24.4143 31.2667 24.4143 31.0016C24.4143 30.7364 24.5196 30.4821 24.7071 30.2946L33.9001 21.1016ZM36.7281 29.5876C36.9138 29.7733 37.1344 29.9205 37.377 30.021C37.6197 30.1215 37.8798 30.1732 38.1424 30.1731C38.4051 30.1731 38.6652 30.1213 38.9078 30.0207C39.1504 29.9202 39.3709 29.7728 39.5566 29.5871C39.7423 29.4013 39.8896 29.1808 39.99 28.9381C40.0905 28.6954 40.1422 28.4354 40.1421 28.1727C40.1421 27.9101 40.0903 27.65 39.9898 27.4073C39.8892 27.1647 39.7418 26.9443 39.5561 26.7586C39.3703 26.5729 39.1498 26.4256 38.9072 26.3251C38.6645 26.2247 38.4044 26.173 38.1417 26.173C37.6113 26.1731 37.1026 26.3839 36.7276 26.7591C36.3526 27.1342 36.1419 27.643 36.142 28.1734C36.1421 28.7039 36.3529 29.2125 36.7281 29.5876Z" fill="#EA7B00"/>
</g>
<defs>
<filter id="filter0_d_193_2118" x="0" y="0" width="70" height="70" filterUnits="userSpaceOnUse" color-interpolation-filters="sRGB">
<feFlood flood-opacity="0" result="BackgroundImageFix"/>
<feColorMatrix in="SourceAlpha" type="matrix" values="0 0 0 0 0 0 0 0 0 0 0 0 0 0 0 0 0 0 127 0" result="hardAlpha"/>
<feOffset dy="4"/>
<feGaussianBlur stdDeviation="4"/>
<feComposite in2="hardAlpha" operator="out"/>
<feColorMatrix type="matrix" values="0 0 0 0 0 0 0 0 0 0 0 0 0 0 0 0 0 0 0.12 0"/>
<feBlend mode="normal" in2="BackgroundImageFix" result="effect1_dropShadow_193_2118"/>
<feBlend mode="normal" in="SourceGraphic" in2="effect1_dropShadow_193_2118" result="shape"/>
</filter>
<clipPath id="clip0_193_2118">
<rect width="24" height="24" fill="white" transform="translate(23 19)"/>
</clipPath>
</defs>
</svg>
