<svg width="40" height="40" viewBox="0 0 40 40" fill="none" xmlns="http://www.w3.org/2000/svg">
<path d="M27.6735 14.1935C27.8902 14.7768 28.0035 15.3918 28.0118 16.0118C28.0668 17.0485 28.0668 17.3635 28.0668 19.9885C28.0668 22.6118 28.0602 22.9268 28.0118 23.9635C28.0034 24.5844 27.889 25.1994 27.6735 25.7818C27.5097 26.2059 27.259 26.5911 26.9376 26.9126C26.6161 27.234 26.2309 27.4847 25.8068 27.6485C25.2235 27.8652 24.6085 27.9785 23.9885 27.9885C22.9518 28.0418 22.6368 28.0418 20.0118 28.0418C17.3885 28.0418 17.0735 28.0368 16.0368 27.9885C15.4158 27.9795 14.8008 27.8645 14.2185 27.6485C13.7944 27.4847 13.4092 27.234 13.0878 26.9126C12.7663 26.5911 12.5156 26.2059 12.3518 25.7818C12.136 25.2 12.021 24.5856 12.0118 23.9652C11.9585 22.9268 11.9585 22.6118 11.9585 19.9885C11.9585 17.3635 11.9635 17.0485 12.0118 16.0118C12.0218 15.3918 12.1352 14.7768 12.3518 14.1952C12.5156 13.7711 12.7663 13.3859 13.0878 13.0644C13.4092 12.743 13.7944 12.4923 14.2185 12.3285C14.8018 12.1118 15.4152 11.9968 16.0352 11.9885C17.0735 11.9335 17.3885 11.9335 20.0118 11.9335C22.6368 11.9335 22.9518 11.9402 23.9885 11.9885C24.6085 11.9968 25.2235 12.1118 25.8052 12.3268C26.6635 12.6602 27.3435 13.3368 27.6735 14.1935ZM20.0002 25.0552C20.664 25.0552 21.3213 24.9244 21.9346 24.6704C22.5479 24.4163 23.1052 24.044 23.5746 23.5746C24.044 23.1052 24.4163 22.5479 24.6704 21.9346C24.9244 21.3213 25.0552 20.664 25.0552 20.0002C25.0552 19.3363 24.9244 18.679 24.6704 18.0657C24.4163 17.4524 24.044 16.8951 23.5746 16.4257C23.1052 15.9563 22.5479 15.584 21.9346 15.33C21.3213 15.0759 20.664 14.9452 20.0002 14.9452C18.6595 14.9452 17.3737 15.4777 16.4257 16.4257C15.4777 17.3737 14.9452 18.6595 14.9452 20.0002C14.9452 21.3408 15.4777 22.6266 16.4257 23.5746C17.3737 24.5226 18.6595 25.0552 20.0002 25.0552ZM25.2552 15.9268C25.4156 15.9354 25.5761 15.9111 25.7269 15.8556C25.8777 15.8 26.0156 15.7144 26.1322 15.6038C26.2488 15.4932 26.3416 15.3601 26.4051 15.2125C26.4686 15.0648 26.5013 14.9058 26.5013 14.7452C26.5013 14.5845 26.4686 14.4255 26.4051 14.2779C26.3416 14.1302 26.2488 13.9971 26.1322 13.8865C26.0156 13.7759 25.8777 13.6903 25.7269 13.6347C25.5761 13.5792 25.4156 13.555 25.2552 13.5635C24.9526 13.5796 24.6678 13.7111 24.4593 13.9309C24.2508 14.1508 24.1346 14.4422 24.1346 14.7452C24.1346 15.0481 24.2508 15.3396 24.4593 15.5594C24.6678 15.7792 24.9526 15.9108 25.2552 15.9268ZM20.0002 23.2785C19.1307 23.2785 18.2968 22.9331 17.682 22.3183C17.0672 21.7035 16.7218 20.8696 16.7218 20.0002C16.7218 19.1307 17.0672 18.2968 17.682 17.682C18.2968 17.0672 19.1307 16.7218 20.0002 16.7218C20.8696 16.7218 21.7035 17.0672 22.3183 17.682C22.9331 18.2968 23.2785 19.1307 23.2785 20.0002C23.2785 20.8696 22.9331 21.7035 22.3183 22.3183C21.7035 22.9331 20.8696 23.2785 20.0002 23.2785ZM20.0002 3.3335C10.7952 3.3335 3.3335 10.7952 3.3335 20.0002C3.3335 29.2052 10.7952 36.6668 20.0002 36.6668C29.2052 36.6668 36.6668 29.2052 36.6668 20.0002C36.6668 17.8115 36.2357 15.6442 35.3982 13.6221C34.5606 11.6 33.3329 9.76269 31.7853 8.21505C30.2376 6.66741 28.4003 5.43975 26.3782 4.60217C24.3561 3.76459 22.1889 3.3335 20.0002 3.3335ZM29.7835 24.0552C29.7668 24.8718 29.6135 25.6785 29.3268 26.4418C29.0743 27.096 28.6878 27.6901 28.1921 28.1861C27.6964 28.6821 27.1025 29.0689 26.4485 29.3218C25.6837 29.6068 24.8762 29.76 24.0602 29.7752C23.0118 29.8252 22.6785 29.8368 20.0068 29.8368C17.3335 29.8368 16.9752 29.8368 15.9518 29.7752C15.1358 29.76 14.3283 29.6068 13.5635 29.3218C12.9095 29.0689 12.3156 28.6821 11.8199 28.1861C11.3242 27.6901 10.9377 27.096 10.6852 26.4418C10.3999 25.6777 10.246 24.8707 10.2302 24.0552C10.1818 23.0052 10.1702 22.6718 10.1702 20.0002C10.1702 17.3268 10.1702 16.9702 10.2302 15.9452C10.2468 15.1285 10.4002 14.3218 10.6852 13.5585C10.9377 12.9043 11.3242 12.3102 11.8199 11.8142C12.3156 11.3183 12.9095 10.9314 13.5635 10.6785C14.3283 10.3936 15.1358 10.2403 15.9518 10.2252C17.0002 10.1752 17.3335 10.1635 20.0068 10.1635C22.6785 10.1635 23.0368 10.1635 24.0602 10.2252C24.8768 10.2402 25.6835 10.3935 26.4485 10.6785C27.7718 11.1902 28.8152 12.2352 29.3268 13.5585C29.6135 14.3218 29.7668 15.1302 29.7818 15.9452C29.8318 16.9952 29.8418 17.3285 29.8418 20.0002C29.8418 22.6735 29.8302 23.0068 29.7818 24.0552H29.7835Z" fill="white"/>
</svg>
