<svg width="40" height="40" viewBox="0 0 40 40" fill="none" xmlns="http://www.w3.org/2000/svg">
<path fill-rule="evenodd" clip-rule="evenodd" d="M36.6668 20.0002C36.6668 10.7935 29.2052 3.3335 20.0002 3.3335C10.7968 3.3335 3.3335 10.7968 3.3335 20.0002C3.3335 29.2052 10.7968 36.6668 20.0002 36.6668C29.2052 36.6668 36.6668 29.2052 36.6668 20.0002ZM28.2102 10.0002H11.4518C10.6518 10.0002 10.0002 10.6335 10.0002 11.4168V28.2468C10.0002 29.0302 10.6502 29.6668 11.4518 29.6668H28.2118C28.5929 29.6708 28.96 29.5236 29.2327 29.2575C29.5055 28.9913 29.6616 28.6279 29.6668 28.2468V11.4168C29.6611 11.0359 29.5045 10.6729 29.2315 10.4073C28.9584 10.1417 28.5911 9.99526 28.2102 10.0002ZM14.3768 12.7018C14.599 12.7022 14.8189 12.7462 15.024 12.8316C15.2291 12.9169 15.4154 13.0418 15.5723 13.1991C15.7291 13.3564 15.8535 13.5431 15.9382 13.7484C16.0229 13.9538 16.0663 14.1738 16.066 14.396C16.0657 14.6181 16.0216 14.8381 15.9363 15.0432C15.851 15.2483 15.7261 15.4346 15.5688 15.5915C15.4114 15.7483 15.2248 15.8726 15.0194 15.9573C14.814 16.0421 14.594 16.0855 14.3718 16.0852C14.1497 16.0849 13.9297 16.041 13.7246 15.9558C13.5194 15.8705 13.3331 15.7457 13.1761 15.5885C13.0192 15.4313 12.8948 15.2447 12.81 15.0393C12.7252 14.834 12.6816 14.614 12.6818 14.3918C12.682 14.1697 12.726 13.9497 12.8112 13.7446C12.8965 13.5394 13.0212 13.3531 13.1785 13.1961C13.3357 13.0392 13.5223 12.9148 13.7277 12.83C13.933 12.7452 14.153 12.7016 14.3752 12.7018H14.3768ZM12.9168 17.3735H15.8385V26.7568H12.9168V17.3735ZM17.6668 17.3735H17.6635L17.6668 17.3702V17.3735ZM17.6668 17.3735H20.4618V18.6568H20.5002C20.8885 17.9185 21.8402 17.1402 23.2668 17.1402C26.2185 17.1402 26.7635 19.0835 26.7635 21.6102V26.7585H23.8502V22.1918C23.8502 21.1052 23.8318 19.7035 22.3352 19.7035C20.8185 19.7035 20.5852 20.8902 20.5852 22.1135V26.7552H17.6668V17.3735Z" fill="white"/>
</svg>
