<svg width="40" height="40" viewBox="0 0 40 40" fill="none" xmlns="http://www.w3.org/2000/svg">
<path d="M20.0002 3.3335C10.7952 3.3335 3.3335 10.7952 3.3335 20.0002C3.3335 27.0602 7.72683 33.0968 13.9268 35.5252C13.7802 34.2068 13.6485 32.1785 13.9835 30.7385C14.2868 29.4385 15.9385 22.4552 15.9385 22.4552C15.9385 22.4552 15.4385 21.4552 15.4385 19.9802C15.4385 17.6635 16.7835 15.9335 18.4552 15.9335C19.8785 15.9335 20.5652 17.0002 20.5652 18.2802C20.5652 19.7102 19.6535 21.8468 19.1835 23.8302C18.7918 25.4885 20.0168 26.8418 21.6518 26.8418C24.6152 26.8418 26.8918 23.7185 26.8918 19.2085C26.8918 15.2185 24.0252 12.4285 19.9302 12.4285C15.1868 12.4285 12.4035 15.9852 12.4035 19.6618C12.4035 21.0952 12.9552 22.6285 13.6452 23.4652C13.7039 23.5282 13.7454 23.6054 13.7656 23.6892C13.7857 23.773 13.7839 23.8606 13.7602 23.9435C13.6335 24.4702 13.3518 25.6018 13.2968 25.8335C13.2252 26.1385 13.0552 26.2035 12.7402 26.0552C10.6568 25.0885 9.35683 22.0435 9.35683 19.6002C9.35683 14.3418 13.1768 9.5135 20.3685 9.5135C26.1518 9.5135 30.6435 13.6335 30.6435 19.1402C30.6435 24.8835 27.0218 29.5068 21.9935 29.5068C20.3068 29.5068 18.7185 28.6285 18.1752 27.5918L17.1368 31.5552C16.7602 33.0018 15.7452 34.8168 15.0652 35.9235C16.6252 36.4068 18.2818 36.6668 20.0002 36.6668C29.2052 36.6668 36.6668 29.2052 36.6668 20.0002C36.6668 10.7952 29.2052 3.3335 20.0002 3.3335Z" fill="white"/>
</svg>
