<svg width="40" height="40" viewBox="0 0 40 40" fill="none" xmlns="http://www.w3.org/2000/svg">
<path fill-rule="evenodd" clip-rule="evenodd" d="M20.0002 36.6668C29.2048 36.6668 36.6668 29.2048 36.6668 20.0002C36.6668 10.7954 29.2048 3.3335 20.0002 3.3335C10.7954 3.3335 3.3335 10.7954 3.3335 20.0002C3.3335 29.2048 10.7954 36.6668 20.0002 36.6668ZM28.2873 18.1177C28.4513 18.1165 28.6155 18.1082 28.7795 18.0925L28.7818 18.0913V14.7634C26.2057 14.5755 24.1347 12.5691 23.8642 10.0002H20.9995L20.9695 23.962C20.9695 25.675 19.4563 27.0242 17.7433 27.0242C16.0315 27.0242 14.6428 25.6367 14.6428 23.9237C14.6428 22.2118 16.0303 20.8232 17.7433 20.8232C17.8352 20.8232 17.9243 20.8355 18.0135 20.8477C18.0487 20.8525 18.0838 20.8573 18.1192 20.8615V17.8663C18.084 17.8643 18.0488 17.8618 18.0135 17.8595C17.924 17.8533 17.8343 17.8472 17.7433 17.8472C14.3866 17.8472 11.6668 20.567 11.6668 23.9237C11.6668 27.2803 14.3866 30.0002 17.7433 30.0002C21.1 30.0002 23.8198 27.2792 23.8198 23.9237V15.7032C24.8075 17.2103 26.487 18.1177 28.2873 18.1177Z" fill="white"/>
</svg>
